<svg xmlns="http://www.w3.org/2000/svg" viewBox="0 0 3912 1452" role="img" aria-label="Dr. Ghina Yassine, Dental and Facial Esthetics">
  <title>Dr. Ghina Yassine, Dental and Facial Esthetics</title>
  <defs>
    <linearGradient id="gold" x1="0" y1="0" x2="1" y2="0.35">
      <stop offset="0" stop-color="#E6C87F"/>
      <stop offset="0.5" stop-color="#D5AE61"/>
      <stop offset="1" stop-color="#AF7E3B"/>
    </linearGradient>
  </defs>
  <path fill="url(#gold)" fill-rule="evenodd" d="M 1074 36 C 1070 36, 1064 38, 1060 38 C 1056 39, 1051 41, 1048 41 C 1045 42, 1041 43, 1038 43 C 1036 44, 1031 45, 1027 46 C 1024 47, 1017 48, 1013 49 C 1004 50, 998 52, 997 53 C 996 54, 995 54, 994 54 C 993 54, 990 55, 988 57 L 983 60 974 62 C 969 63, 963 64, 960 65 C 957 66, 954 67, 953 67 C 950 67, 942 70, 938 72 C 937 72, 934 74, 932 75 C 927 78, 914 82, 911 82 C 906 82, 898 86, 894 89 C 893 91, 891 92, 890 92 C 887 92, 878 95, 869 99 C 857 103, 848 106, 846 106 C 843 106, 836 109, 832 112 C 830 113, 826 114, 824 115 C 818 116, 809 120, 807 121 C 804 124, 798 127, 790 128 C 785 129, 779 131, 776 132 L 771 133 767 137 L 764 140 756 142 C 740 145, 729 149, 724 155 L 721 158 721 162 L 722 167 725 170 C 730 175, 736 178, 750 182 L 762 186 770 186 C 774 185, 782 185, 787 184 C 791 184, 796 184, 797 183 C 799 183, 803 182, 823 179 C 843 177, 856 173, 871 167 L 879 164 889 162 C 911 159, 918 157, 933 150 L 942 146 949 145 C 963 144, 981 140, 985 137 C 986 136, 989 134, 993 133 L 999 131 1009 130 C 1015 130, 1022 129, 1024 129 C 1026 128, 1041 128, 1055 128 L 1082 127 1087 128 C 1089 129, 1094 130, 1098 130 C 1107 131, 1113 133, 1121 138 C 1128 142, 1136 145, 1144 146 L 1148 147 1154 154 C 1158 157, 1164 163, 1167 166 C 1171 169, 1176 173, 1179 176 C 1181 178, 1184 180, 1184 180 C 1184 180, 1186 182, 1187 184 L 1188 188 1193 192 C 1198 195, 1200 198, 1202 203 C 1203 205, 1206 210, 1209 213 L 1214 219 1216 225 C 1217 228, 1218 232, 1219 233 C 1221 237, 1226 248, 1226 249 C 1226 250, 1227 253, 1229 256 C 1231 259, 1232 263, 1232 265 C 1232 266, 1233 271, 1235 275 C 1236 279, 1238 284, 1238 286 C 1239 288, 1240 291, 1241 292 C 1241 294, 1243 300, 1244 307 C 1245 314, 1247 320, 1247 322 C 1248 323, 1249 327, 1250 332 C 1251 343, 1255 360, 1256 363 C 1257 364, 1258 369, 1258 373 L 1259 380 1266 388 C 1271 392, 1274 395, 1275 395 C 1276 395, 1281 381, 1283 372 L 1284 363 1287 356 C 1291 347, 1295 336, 1295 328 C 1296 325, 1297 321, 1298 319 L 1299 315 1301 287 C 1301 272, 1303 258, 1303 256 L 1304 252 1304 224 L 1303 197 1301 192 C 1300 190, 1299 186, 1299 183 C 1299 173, 1295 156, 1290 148 C 1287 142, 1285 138, 1280 124 C 1278 116, 1275 111, 1273 111 C 1270 111, 1263 102, 1262 98 C 1260 92, 1254 86, 1247 81 C 1244 79, 1239 74, 1237 72 L 1232 66 1228 65 C 1225 65, 1222 64, 1221 64 C 1220 63, 1218 62, 1217 61 C 1215 57, 1211 54, 1202 52 C 1198 51, 1190 48, 1184 46 C 1179 45, 1171 43, 1167 42 C 1164 42, 1158 41, 1155 40 L 1150 38 1138 38 C 1132 37, 1126 37, 1126 36 C 1124 36, 1080 35, 1074 36 M 158 123 C 155 124, 151 128, 149 132 C 148 134, 146 141, 144 147 C 141 159, 139 163, 134 168 C 130 172, 126 180, 125 185 C 125 188, 122 191, 119 191 C 115 191, 104 199, 104 202 C 104 202, 102 205, 99 208 C 93 214, 89 216, 78 219 C 73 220, 65 223, 60 226 L 51 230 50 232 L 49 235 50 237 C 51 238, 53 240, 56 241 C 58 242, 62 244, 63 244 C 64 245, 68 246, 70 247 C 77 249, 89 256, 98 265 C 103 269, 107 273, 107 273 C 108 273, 108 273, 108 274 C 108 275, 109 277, 111 279 L 113 283 112 287 C 111 294, 108 307, 108 310 C 108 311, 107 315, 105 320 L 103 327 102 339 C 101 345, 100 355, 100 360 L 98 369 98 406 L 99 444 101 448 L 104 453 105 461 C 106 478, 106 484, 107 491 C 108 494, 109 500, 109 503 C 110 506, 111 510, 112 512 C 112 514, 113 520, 114 524 C 115 533, 117 539, 120 544 C 124 551, 127 558, 128 566 L 128 573 131 577 C 132 580, 133 583, 133 584 C 133 586, 139 602, 141 607 C 142 608, 144 613, 145 618 C 146 623, 148 629, 149 632 L 150 637 154 641 L 158 645 159 650 C 160 653, 162 659, 164 662 C 171 673, 176 684, 179 692 C 182 702, 182 703, 187 705 L 191 707 192 711 C 193 713, 193 716, 193 717 C 193 721, 197 731, 200 735 C 204 741, 208 747, 211 755 C 214 764, 216 767, 222 770 L 226 772 228 777 C 233 787, 242 795, 249 795 C 250 795, 252 796, 255 798 L 259 801 271 804 L 283 807 290 807 L 298 806 307 803 L 317 800 319 798 L 321 796 322 788 C 324 778, 324 776, 322 772 C 315 759, 307 743, 307 741 C 306 740, 303 733, 300 727 C 294 714, 292 707, 290 697 C 289 691, 287 686, 282 671 C 280 666, 277 660, 276 657 C 275 652, 271 633, 271 628 C 271 624, 268 610, 264 600 C 263 596, 261 590, 261 585 C 260 581, 259 575, 258 573 L 257 568 257 501 L 257 435 258 413 C 261 387, 260 388, 264 384 L 267 380 267 378 C 267 376, 268 374, 268 372 C 269 370, 271 366, 271 363 C 273 357, 278 348, 281 345 C 281 344, 282 344, 282 343 C 282 343, 283 341, 284 340 C 285 339, 288 335, 290 331 L 293 323 298 319 C 301 317, 305 314, 305 312 C 307 309, 310 306, 313 305 C 314 305, 318 302, 320 300 L 326 294 331 294 C 334 293, 342 291, 349 289 C 355 287, 364 285, 368 284 C 372 283, 378 282, 381 281 L 387 280 421 280 C 440 280, 460 280, 467 280 C 473 281, 485 281, 494 282 C 507 283, 542 286, 557 288 C 560 288, 564 288, 567 288 C 572 289, 587 290, 598 291 C 600 292, 607 292, 614 293 C 620 294, 629 295, 634 295 C 646 297, 673 298, 698 297 L 719 297 735 295 C 744 294, 754 293, 757 292 C 760 292, 766 291, 770 289 C 774 288, 780 286, 783 285 C 786 285, 795 281, 804 277 C 812 273, 819 270, 820 270 C 820 270, 823 269, 825 268 L 830 266 832 262 C 834 258, 836 257, 842 256 C 849 254, 850 250, 845 246 C 840 241, 839 241, 820 239 C 814 239, 805 238, 801 238 C 797 237, 789 237, 784 237 L 775 237 771 235 C 767 233, 752 230, 741 229 C 736 229, 729 228, 725 227 C 721 227, 716 226, 714 226 C 712 226, 708 226, 706 225 C 703 224, 698 223, 695 223 C 688 222, 683 220, 669 216 C 664 214, 656 212, 653 212 C 649 211, 643 210, 640 209 C 637 207, 632 205, 629 204 C 625 204, 621 202, 619 200 C 617 199, 614 198, 612 197 C 611 197, 609 196, 607 195 C 605 194, 595 192, 588 192 L 582 192 580 190 C 578 189, 577 187, 576 185 L 575 182 565 180 C 556 177, 553 176, 538 168 C 535 167, 529 165, 525 165 C 520 164, 515 162, 513 161 C 510 161, 505 159, 501 159 C 493 158, 490 157, 473 152 C 469 151, 464 150, 461 149 C 458 149, 453 148, 450 147 C 447 146, 440 145, 435 145 C 420 143, 405 142, 404 141 C 403 141, 385 141, 364 141 C 328 141, 319 141, 301 144 C 297 145, 286 146, 278 147 C 260 149, 259 149, 255 153 L 252 155 247 155 C 240 156, 234 159, 225 163 C 214 169, 206 173, 202 174 C 200 175, 198 175, 197 175 L 195 176 191 173 C 184 165, 181 161, 178 154 C 176 150, 175 145, 175 144 C 175 143, 174 141, 173 139 C 172 136, 171 134, 171 133 C 171 131, 165 124, 164 124 C 164 124, 163 123, 162 123 C 162 122, 161 122, 158 123 M 323 999 C 320 1002, 316 1010, 315 1014 C 315 1016, 314 1019, 312 1021 C 309 1025, 307 1029, 306 1039 L 305 1048 306 1054 L 307 1061 310 1066 C 312 1068, 314 1071, 315 1073 C 317 1074, 319 1076, 320 1079 C 322 1081, 324 1084, 326 1085 C 330 1086, 341 1088, 358 1090 L 370 1091 390 1090 C 401 1090, 413 1089, 416 1090 C 425 1091, 462 1086, 476 1082 C 481 1080, 491 1078, 513 1075 C 526 1074, 535 1072, 548 1067 C 554 1065, 561 1063, 565 1062 C 569 1061, 574 1060, 576 1060 C 578 1060, 584 1059, 591 1058 L 602 1058 609 1055 C 613 1054, 618 1052, 619 1050 L 622 1048 621 1046 C 620 1045, 618 1044, 616 1043 L 612 1041 587 1041 L 563 1042 557 1043 C 551 1045, 536 1048, 521 1050 C 518 1050, 506 1050, 493 1051 C 480 1052, 467 1052, 464 1053 C 461 1053, 443 1053, 425 1053 L 392 1053 385 1050 C 381 1048, 377 1046, 376 1046 C 375 1046, 373 1045, 372 1044 C 371 1043, 368 1042, 367 1041 L 364 1040 361 1034 L 358 1029 353 1025 C 346 1021, 344 1018, 344 1015 C 344 1010, 333 998, 328 997 L 324 997 323 999 M 386 1116 C 374 1129, 373 1132, 373 1145 C 372 1150, 372 1154, 372 1155 C 370 1157, 373 1162, 379 1170 L 384 1178 388 1180 C 391 1181, 393 1182, 394 1182 C 394 1182, 398 1183, 401 1185 C 405 1186, 410 1188, 413 1189 L 418 1190 434 1190 C 450 1189, 471 1188, 479 1187 C 484 1186, 491 1185, 503 1184 C 508 1184, 514 1183, 516 1182 C 517 1181, 521 1180, 525 1180 C 532 1179, 539 1176, 544 1172 C 549 1168, 556 1166, 565 1165 L 574 1163 576 1161 L 578 1158 577 1156 C 576 1154, 574 1153, 572 1153 C 568 1152, 520 1154, 517 1155 L 515 1156 482 1157 L 449 1157 437 1155 C 431 1153, 422 1150, 418 1149 L 411 1146 406 1141 C 401 1136, 400 1133, 399 1126 L 398 1122 394 1118 C 390 1113, 389 1113, 386 1116 M 439 1217 C 437 1218, 435 1219, 435 1220 C 433 1224, 431 1237, 431 1244 C 432 1253, 434 1255, 449 1266 L 451 1267 463 1269 L 476 1270 493 1267 C 503 1266, 512 1265, 512 1264 C 513 1264, 518 1263, 525 1262 C 531 1261, 542 1259, 548 1258 C 554 1256, 560 1255, 562 1255 C 563 1255, 566 1255, 569 1254 L 574 1253 576 1250 L 577 1247 574 1245 L 571 1244 551 1244 C 523 1244, 516 1244, 512 1246 L 509 1247 497 1246 L 485 1245 474 1241 C 468 1240, 463 1237, 461 1237 C 460 1236, 458 1235, 458 1235 C 455 1235, 452 1230, 452 1225 C 451 1221, 448 1217, 445 1216 C 443 1215, 441 1216, 439 1217 M 500 1309 C 499 1310, 497 1313, 496 1315 L 495 1319 496 1328 C 497 1339, 499 1342, 504 1344 C 509 1346, 511 1348, 512 1354 C 514 1359, 518 1365, 520 1365 C 521 1365, 523 1367, 525 1369 C 529 1374, 529 1374, 532 1379 C 535 1383, 539 1387, 545 1390 C 550 1393, 555 1398, 555 1400 C 555 1401, 556 1403, 558 1404 L 561 1407 568 1409 L 575 1411 579 1414 L 582 1417 584 1417 C 585 1416, 587 1416, 588 1416 C 590 1415, 593 1414, 596 1414 C 598 1413, 604 1411, 608 1410 L 615 1408 618 1405 L 621 1401 624 1391 C 626 1386, 629 1378, 631 1373 C 633 1369, 636 1363, 636 1361 C 636 1359, 638 1353, 639 1348 L 641 1340 641 1329 L 641 1319 638 1316 L 636 1314 623 1314 C 609 1314, 607 1315, 594 1318 C 582 1322, 571 1323, 554 1323 L 540 1323 532 1321 C 527 1320, 523 1319, 522 1319 C 519 1319, 514 1316, 513 1313 C 512 1310, 507 1306, 505 1306 C 504 1306, 502 1307, 500 1309"/>
  <path fill="#C69C55" fill-rule="evenodd" d="M156.0 104.0 Q174.0 216.2 276.0 236.0 Q174.0 255.8 156.0 368.0 Q138.0 255.8 36.0 236.0 Q138.0 216.2 156.0 104.0Z"/>
  <path fill="#1A1817" fill-rule="evenodd" d="M 773 417 C 757 418, 741 420, 736 421 C 734 422, 728 423, 722 423 C 716 424, 708 426, 705 426 C 702 427, 696 429, 692 429 C 679 432, 662 437, 648 442 C 644 443, 639 444, 637 445 C 635 445, 632 446, 630 447 C 627 448, 623 450, 621 450 C 618 451, 612 453, 608 455 C 604 456, 600 458, 599 459 C 597 459, 595 460, 593 460 C 591 461, 588 462, 586 463 C 585 464, 582 465, 581 465 C 580 465, 578 466, 577 467 C 575 468, 574 469, 573 469 C 572 469, 568 471, 565 472 C 561 474, 555 477, 552 478 C 535 486, 506 501, 500 505 C 497 507, 495 508, 495 508 C 494 508, 493 509, 492 510 C 490 511, 487 513, 484 515 C 481 516, 476 519, 473 522 C 470 524, 466 527, 464 528 C 458 531, 444 542, 437 548 C 434 550, 431 553, 428 555 C 410 569, 389 592, 378 609 C 374 615, 367 629, 367 631 C 367 631, 366 634, 365 636 C 362 643, 361 665, 363 673 C 366 684, 375 696, 383 699 C 401 707, 432 707, 454 699 C 456 699, 461 697, 464 697 C 466 696, 470 695, 472 694 C 473 693, 475 692, 476 692 C 477 692, 487 688, 496 683 C 498 682, 500 681, 501 681 C 502 681, 515 675, 524 670 C 527 668, 533 665, 537 663 C 541 661, 546 657, 549 656 C 551 654, 557 650, 562 647 C 575 638, 577 637, 588 628 C 624 601, 657 572, 661 564 C 663 558, 661 553, 655 554 C 649 554, 648 555, 642 560 C 640 563, 636 566, 634 568 C 620 579, 617 582, 610 588 C 606 591, 598 597, 593 601 C 577 613, 573 616, 560 625 C 553 629, 546 634, 545 635 C 544 636, 541 638, 539 639 C 536 640, 532 642, 530 644 C 511 655, 481 667, 465 669 C 461 670, 454 671, 450 672 C 444 673, 438 673, 428 673 C 409 672, 404 670, 398 662 L 395 657 395 646 C 395 638, 395 633, 396 630 C 397 628, 399 623, 400 621 C 400 618, 402 615, 402 614 C 403 613, 404 611, 405 609 C 405 607, 407 605, 408 603 C 409 602, 412 598, 414 594 C 420 585, 449 556, 458 551 C 460 549, 464 547, 467 544 C 471 540, 482 533, 490 529 C 497 524, 513 515, 514 514 C 515 514, 517 513, 519 512 C 520 511, 523 510, 524 509 C 525 508, 528 507, 529 506 C 530 506, 534 504, 538 502 C 541 501, 544 499, 544 498 C 545 498, 546 497, 547 497 C 549 497, 551 496, 554 494 C 556 493, 558 492, 560 492 C 561 492, 563 491, 564 490 C 567 488, 579 483, 587 481 C 590 480, 593 478, 594 478 C 594 477, 595 477, 596 477 C 598 477, 601 476, 604 475 C 607 474, 612 472, 615 471 C 617 471, 622 469, 624 468 C 626 467, 631 465, 635 465 C 639 464, 646 462, 651 460 C 664 457, 691 451, 703 450 C 709 449, 718 447, 723 447 C 746 442, 818 443, 837 447 C 842 448, 848 449, 850 449 C 854 450, 868 454, 883 460 C 885 461, 889 462, 891 464 C 893 465, 895 466, 896 466 C 896 466, 899 468, 902 471 C 905 473, 910 477, 912 478 C 920 483, 935 503, 939 514 C 940 517, 941 520, 942 521 C 945 527, 949 558, 947 569 C 947 573, 945 581, 945 587 C 944 592, 943 599, 942 602 C 935 622, 933 627, 930 634 C 929 636, 928 639, 928 640 C 928 640, 927 643, 926 646 C 924 648, 923 651, 923 652 C 923 652, 922 654, 921 656 C 919 657, 918 660, 917 662 C 917 663, 916 666, 914 668 C 913 670, 912 672, 912 672 C 912 673, 911 674, 910 676 C 907 681, 900 691, 896 698 C 894 703, 891 707, 889 710 C 888 711, 885 715, 883 719 C 865 747, 835 783, 803 815 C 791 827, 790 827, 781 826 C 758 823, 722 821, 715 822 C 713 822, 710 823, 710 822 C 709 822, 705 822, 701 823 C 696 823, 685 825, 676 826 C 666 827, 655 829, 651 830 C 646 831, 640 832, 637 833 C 633 833, 629 834, 627 835 C 626 835, 622 836, 619 837 C 615 837, 601 841, 586 846 C 570 851, 539 863, 528 869 C 527 870, 523 872, 520 874 C 516 876, 512 878, 510 880 C 507 882, 502 885, 499 887 C 485 895, 461 923, 461 929 C 461 930, 460 933, 459 936 C 456 944, 456 959, 460 966 C 466 977, 474 983, 492 986 C 507 989, 521 989, 556 983 C 564 982, 574 979, 582 977 C 585 976, 590 974, 594 974 C 597 973, 601 972, 602 971 C 603 970, 606 969, 608 968 C 610 968, 613 967, 616 966 C 618 965, 626 961, 634 958 C 649 951, 655 948, 667 942 C 671 939, 675 937, 676 937 C 676 937, 678 936, 680 935 C 682 933, 688 930, 694 926 C 699 923, 708 917, 714 914 C 719 910, 726 906, 727 905 C 737 899, 775 869, 786 858 C 794 851, 799 851, 812 857 C 826 864, 834 874, 834 885 C 834 893, 833 896, 823 905 C 817 912, 815 914, 815 916 C 816 920, 818 921, 822 919 C 824 918, 828 917, 830 917 C 839 914, 850 905, 854 897 C 858 889, 858 870, 853 862 C 847 852, 832 839, 821 837 C 815 835, 815 833, 820 827 C 851 795, 873 770, 895 742 C 903 730, 930 690, 934 683 C 935 680, 937 676, 939 673 C 941 670, 945 661, 949 653 C 953 645, 957 637, 958 635 C 959 633, 960 630, 960 629 C 960 628, 961 626, 962 625 C 963 623, 964 619, 965 617 C 966 614, 967 611, 967 610 C 968 609, 973 592, 975 584 C 978 569, 981 542, 979 532 C 975 504, 971 492, 960 474 C 952 464, 935 447, 927 444 C 926 443, 925 442, 925 442 C 925 441, 914 436, 904 431 C 901 430, 897 429, 895 428 C 893 428, 890 427, 889 426 C 887 426, 878 423, 869 422 C 843 416, 808 415, 773 417 M 1598 420 C 1578 423, 1559 428, 1545 433 C 1540 435, 1534 438, 1532 438 C 1531 439, 1528 440, 1526 441 C 1525 443, 1522 444, 1520 444 C 1517 445, 1514 446, 1513 447 C 1511 448, 1509 449, 1507 449 C 1506 450, 1502 452, 1498 454 C 1494 456, 1489 459, 1488 460 C 1466 470, 1430 495, 1400 519 C 1396 522, 1391 526, 1390 527 C 1350 559, 1289 622, 1272 648 C 1272 649, 1270 651, 1268 654 C 1267 656, 1264 660, 1263 663 C 1261 666, 1258 669, 1257 671 C 1255 673, 1253 676, 1253 678 C 1252 680, 1250 684, 1248 686 C 1244 692, 1232 716, 1232 717 C 1232 718, 1231 719, 1230 721 C 1228 724, 1221 740, 1221 741 C 1221 742, 1220 744, 1220 745 C 1218 750, 1214 759, 1211 769 C 1210 774, 1208 778, 1208 779 C 1207 780, 1206 785, 1205 790 C 1205 795, 1203 801, 1203 804 C 1202 806, 1201 814, 1200 822 C 1199 829, 1198 837, 1198 841 C 1197 847, 1197 848, 1198 850 C 1200 853, 1200 858, 1198 860 C 1197 862, 1197 863, 1198 869 C 1199 873, 1200 878, 1201 880 C 1203 894, 1215 909, 1230 917 C 1245 925, 1277 928, 1297 923 C 1301 922, 1306 921, 1308 921 C 1311 920, 1313 919, 1314 919 C 1316 918, 1318 917, 1320 916 C 1327 915, 1361 899, 1376 890 C 1380 888, 1384 885, 1386 884 C 1389 883, 1407 870, 1415 865 C 1436 849, 1469 820, 1499 790 C 1515 774, 1529 760, 1530 758 C 1534 754, 1536 754, 1536 758 C 1536 761, 1535 762, 1533 764 C 1532 765, 1530 768, 1529 770 C 1528 771, 1526 775, 1524 777 C 1521 781, 1520 783, 1520 785 C 1520 787, 1519 789, 1515 793 C 1511 797, 1509 799, 1509 801 C 1509 802, 1508 804, 1507 806 C 1503 810, 1500 814, 1500 816 C 1500 817, 1499 819, 1497 821 C 1494 823, 1488 832, 1488 833 C 1488 834, 1483 841, 1476 850 C 1475 851, 1474 854, 1473 856 C 1471 859, 1457 881, 1454 884 C 1453 885, 1452 887, 1452 887 C 1452 888, 1450 892, 1447 896 C 1444 901, 1441 905, 1440 906 C 1440 907, 1438 910, 1436 914 C 1433 917, 1430 922, 1428 925 C 1427 927, 1424 932, 1421 935 C 1419 939, 1417 942, 1417 943 C 1416 944, 1414 946, 1413 949 C 1412 951, 1409 954, 1408 956 C 1406 957, 1405 960, 1405 961 C 1404 962, 1402 965, 1401 968 C 1395 976, 1394 978, 1391 983 C 1389 986, 1384 993, 1380 999 C 1376 1005, 1373 1011, 1373 1011 C 1373 1012, 1372 1014, 1371 1015 C 1369 1016, 1368 1018, 1368 1019 C 1368 1019, 1367 1020, 1367 1021 C 1366 1022, 1365 1024, 1364 1026 C 1363 1028, 1362 1031, 1360 1033 C 1355 1039, 1353 1042, 1353 1044 C 1352 1045, 1351 1048, 1349 1049 C 1348 1051, 1347 1053, 1347 1053 C 1347 1054, 1346 1055, 1345 1057 C 1342 1059, 1341 1062, 1338 1069 C 1336 1072, 1335 1074, 1334 1074 C 1334 1074, 1333 1076, 1332 1078 C 1331 1080, 1328 1084, 1326 1088 C 1324 1091, 1322 1094, 1321 1095 C 1321 1096, 1320 1098, 1319 1099 C 1319 1100, 1318 1103, 1317 1104 C 1316 1105, 1315 1108, 1315 1109 C 1308 1121, 1305 1128, 1304 1131 C 1304 1134, 1303 1136, 1302 1138 C 1300 1141, 1299 1161, 1301 1164 C 1302 1167, 1309 1168, 1314 1167 C 1318 1167, 1337 1158, 1342 1154 C 1343 1153, 1345 1152, 1345 1152 C 1346 1152, 1348 1151, 1350 1149 C 1365 1138, 1364 1136, 1346 1136 C 1338 1136, 1334 1136, 1333 1135 C 1331 1133, 1332 1129, 1335 1126 C 1336 1125, 1337 1123, 1337 1122 C 1337 1121, 1339 1118, 1340 1116 C 1345 1110, 1353 1097, 1353 1096 C 1353 1095, 1357 1090, 1361 1084 C 1363 1082, 1364 1080, 1364 1079 C 1364 1079, 1365 1077, 1366 1075 C 1372 1067, 1384 1047, 1384 1046 C 1384 1046, 1385 1044, 1387 1043 C 1388 1042, 1389 1040, 1389 1040 C 1389 1039, 1391 1035, 1394 1032 C 1396 1028, 1399 1023, 1399 1021 C 1400 1020, 1402 1018, 1403 1017 C 1404 1016, 1405 1014, 1405 1013 C 1405 1012, 1407 1008, 1410 1005 C 1413 1001, 1416 996, 1417 995 C 1422 986, 1426 979, 1429 975 C 1431 973, 1432 970, 1432 970 C 1432 969, 1434 965, 1437 962 C 1440 958, 1442 954, 1442 954 C 1442 953, 1443 951, 1445 949 C 1447 946, 1450 942, 1452 936 C 1453 935, 1454 933, 1455 933 C 1455 932, 1457 930, 1459 927 C 1461 924, 1463 920, 1465 918 C 1466 916, 1468 913, 1469 912 C 1469 911, 1470 908, 1471 907 C 1480 894, 1484 887, 1484 886 C 1484 885, 1489 878, 1491 875 C 1493 874, 1495 870, 1500 861 C 1501 858, 1504 854, 1506 850 C 1509 847, 1512 842, 1513 840 C 1514 838, 1516 835, 1518 834 C 1519 832, 1520 830, 1520 829 C 1521 827, 1522 825, 1523 823 C 1526 819, 1536 804, 1536 803 C 1536 802, 1540 796, 1545 790 C 1547 788, 1548 785, 1548 785 C 1548 785, 1550 780, 1554 775 C 1557 770, 1560 765, 1561 764 C 1562 762, 1564 758, 1567 755 C 1569 751, 1572 746, 1574 743 C 1575 740, 1579 733, 1582 729 C 1585 724, 1588 719, 1589 718 C 1590 717, 1593 711, 1596 707 C 1599 702, 1603 696, 1604 694 C 1606 690, 1608 686, 1613 680 C 1615 678, 1616 675, 1616 675 C 1616 674, 1617 673, 1617 672 C 1618 671, 1619 669, 1620 667 C 1621 665, 1622 662, 1623 661 C 1625 658, 1625 658, 1624 656 C 1623 653, 1623 653, 1616 653 C 1608 653, 1608 653, 1602 658 C 1596 663, 1589 670, 1581 680 C 1578 683, 1570 693, 1563 701 C 1555 710, 1546 719, 1544 722 C 1542 725, 1539 728, 1538 729 C 1537 730, 1530 737, 1523 745 C 1499 771, 1459 810, 1448 818 C 1446 819, 1441 823, 1438 826 C 1432 831, 1425 836, 1406 851 C 1390 863, 1353 885, 1349 885 C 1348 885, 1346 886, 1345 887 C 1343 888, 1342 889, 1341 889 C 1340 889, 1336 890, 1333 892 C 1329 893, 1324 895, 1321 896 C 1318 897, 1314 898, 1312 899 C 1306 901, 1285 902, 1272 901 C 1259 900, 1252 896, 1244 886 C 1235 875, 1233 868, 1233 844 C 1233 832, 1233 822, 1234 817 C 1235 812, 1236 806, 1237 803 C 1237 795, 1243 772, 1245 765 C 1246 762, 1248 757, 1248 755 C 1249 752, 1250 748, 1251 746 C 1252 745, 1253 742, 1253 741 C 1253 740, 1254 737, 1256 734 C 1258 732, 1259 729, 1259 728 C 1259 727, 1261 723, 1267 711 C 1270 703, 1282 680, 1285 677 C 1286 675, 1287 672, 1289 670 C 1294 661, 1308 641, 1312 636 C 1322 623, 1331 612, 1338 604 C 1343 599, 1349 593, 1352 590 C 1362 579, 1375 566, 1388 555 C 1394 549, 1402 542, 1406 538 C 1410 535, 1414 531, 1416 530 C 1418 529, 1424 524, 1429 520 C 1434 516, 1438 513, 1439 513 C 1439 513, 1441 512, 1443 510 C 1448 506, 1463 495, 1472 490 C 1474 488, 1478 486, 1480 484 C 1485 481, 1484 482, 1497 475 C 1502 472, 1508 469, 1510 467 C 1528 459, 1532 457, 1536 456 C 1538 455, 1541 454, 1544 452 C 1546 451, 1549 450, 1552 449 C 1554 449, 1557 448, 1559 447 C 1561 446, 1565 445, 1567 444 C 1569 444, 1574 443, 1577 442 C 1582 440, 1587 440, 1601 440 C 1619 440, 1619 440, 1625 443 C 1632 446, 1634 449, 1637 456 C 1642 466, 1641 468, 1629 475 C 1602 489, 1565 514, 1543 532 C 1528 546, 1513 560, 1504 570 C 1502 573, 1498 577, 1496 579 C 1495 581, 1492 585, 1490 589 C 1488 593, 1486 596, 1485 597 C 1476 612, 1476 632, 1484 638 C 1497 647, 1523 641, 1556 619 C 1562 615, 1569 611, 1570 609 C 1571 608, 1576 605, 1580 602 C 1600 586, 1628 555, 1637 539 C 1647 521, 1654 506, 1656 495 C 1658 485, 1661 481, 1668 481 C 1670 481, 1673 480, 1675 479 C 1677 477, 1679 476, 1687 476 C 1699 475, 1702 474, 1705 466 C 1709 458, 1709 457, 1704 452 C 1700 449, 1700 449, 1694 449 C 1690 450, 1683 452, 1677 454 C 1662 459, 1662 459, 1660 453 C 1659 447, 1656 440, 1655 440 C 1654 440, 1653 438, 1651 436 C 1649 431, 1641 424, 1638 424 C 1637 424, 1634 423, 1631 422 C 1626 420, 1604 418, 1598 420 M 2654 426 C 2650 427, 2640 427, 2632 428 C 2623 429, 2612 430, 2608 431 C 2604 432, 2597 434, 2592 435 C 2575 439, 2559 444, 2552 447 C 2550 448, 2547 449, 2546 449 C 2545 449, 2542 450, 2539 452 C 2537 454, 2534 455, 2533 455 C 2532 455, 2530 456, 2528 457 C 2526 458, 2519 461, 2513 465 C 2498 472, 2481 482, 2473 487 C 2472 488, 2468 491, 2465 493 C 2459 497, 2452 502, 2445 508 C 2442 511, 2438 514, 2436 516 C 2431 520, 2408 542, 2401 551 C 2378 577, 2364 601, 2356 624 C 2351 638, 2351 661, 2355 670 C 2359 679, 2373 692, 2379 692 C 2380 692, 2382 693, 2384 694 C 2385 694, 2390 696, 2394 696 C 2404 697, 2437 696, 2441 695 C 2442 694, 2448 693, 2453 691 C 2458 690, 2463 688, 2465 687 C 2466 687, 2468 686, 2468 686 C 2469 686, 2472 685, 2475 684 C 2488 677, 2493 675, 2494 675 C 2494 675, 2495 674, 2496 673 C 2497 673, 2500 671, 2502 669 C 2512 665, 2527 655, 2540 645 C 2570 622, 2608 582, 2626 556 C 2629 551, 2632 546, 2633 545 C 2636 541, 2637 531, 2635 529 C 2632 527, 2626 527, 2626 529 C 2625 531, 2620 538, 2611 550 C 2589 577, 2562 604, 2545 616 C 2543 618, 2538 621, 2535 623 C 2532 626, 2526 630, 2521 632 C 2517 635, 2511 639, 2508 641 C 2505 642, 2502 644, 2501 644 C 2500 644, 2498 645, 2498 646 C 2497 647, 2495 648, 2494 648 C 2492 648, 2489 649, 2487 650 C 2471 658, 2445 663, 2424 663 C 2416 663, 2409 663, 2408 662 C 2407 662, 2403 661, 2400 660 C 2392 657, 2386 651, 2384 645 C 2379 628, 2384 607, 2397 588 C 2399 585, 2401 582, 2401 582 C 2401 581, 2411 567, 2420 557 C 2430 544, 2459 516, 2465 513 C 2466 512, 2468 511, 2469 510 C 2473 506, 2485 497, 2490 494 C 2493 492, 2498 489, 2501 488 C 2511 481, 2527 473, 2532 471 C 2533 471, 2536 470, 2538 468 C 2539 467, 2542 466, 2544 465 C 2545 465, 2548 464, 2550 463 C 2551 462, 2554 461, 2556 460 C 2558 460, 2562 459, 2564 457 C 2567 456, 2571 455, 2572 455 C 2573 455, 2577 454, 2579 453 C 2581 452, 2588 450, 2593 449 C 2597 448, 2603 447, 2606 446 C 2613 444, 2641 443, 2658 444 C 2683 445, 2694 450, 2707 462 C 2719 474, 2724 485, 2725 505 C 2727 533, 2723 554, 2706 586 C 2700 600, 2694 609, 2691 614 C 2689 616, 2688 618, 2688 618 C 2688 619, 2686 622, 2684 625 C 2683 627, 2679 633, 2676 638 C 2673 642, 2668 648, 2666 651 C 2663 654, 2660 658, 2659 660 C 2658 662, 2654 667, 2652 670 C 2649 674, 2645 679, 2643 682 C 2641 685, 2638 689, 2637 690 C 2635 692, 2632 697, 2629 701 C 2626 705, 2623 709, 2622 710 C 2619 714, 2615 719, 2611 725 C 2609 729, 2606 732, 2606 732 C 2605 732, 2605 733, 2604 734 C 2604 735, 2601 739, 2598 743 C 2595 747, 2593 751, 2593 751 C 2593 752, 2591 755, 2589 759 C 2586 762, 2584 766, 2584 766 C 2584 767, 2583 769, 2582 771 C 2572 785, 2556 819, 2552 834 C 2551 838, 2549 843, 2548 846 C 2547 850, 2547 855, 2547 868 C 2546 887, 2548 894, 2554 899 C 2555 901, 2557 904, 2558 905 C 2558 906, 2561 909, 2564 911 C 2569 915, 2571 915, 2579 916 C 2584 917, 2589 917, 2590 917 C 2594 919, 2623 913, 2633 908 C 2634 907, 2638 905, 2642 903 C 2650 900, 2650 899, 2662 893 C 2667 889, 2674 885, 2677 883 C 2683 879, 2702 865, 2711 857 C 2714 855, 2719 851, 2722 848 C 2740 834, 2789 788, 2797 778 C 2800 775, 2803 774, 2803 777 C 2803 778, 2801 781, 2799 785 C 2789 799, 2788 802, 2787 804 C 2787 806, 2786 808, 2785 809 C 2784 810, 2783 811, 2783 812 C 2783 812, 2782 814, 2780 817 C 2779 819, 2776 823, 2774 827 C 2773 831, 2770 834, 2770 835 C 2769 836, 2768 838, 2767 839 C 2766 841, 2765 844, 2763 845 C 2762 847, 2761 849, 2761 850 C 2761 850, 2760 852, 2759 854 C 2758 856, 2756 858, 2755 860 C 2754 862, 2752 865, 2750 867 C 2749 870, 2747 874, 2745 876 C 2744 879, 2742 883, 2740 886 C 2736 893, 2736 894, 2732 899 C 2730 902, 2729 905, 2729 906 C 2729 906, 2728 907, 2727 908 C 2726 909, 2725 911, 2725 913 C 2724 914, 2723 916, 2722 918 C 2719 922, 2712 934, 2707 943 C 2705 948, 2702 952, 2701 954 C 2700 955, 2699 957, 2699 957 C 2699 958, 2698 960, 2696 962 C 2695 964, 2693 967, 2692 968 C 2692 971, 2690 972, 2683 975 C 2673 979, 2653 989, 2651 990 C 2650 991, 2647 992, 2644 994 C 2619 1008, 2609 1015, 2589 1031 C 2557 1057, 2537 1079, 2510 1114 C 2497 1132, 2490 1142, 2488 1145 C 2488 1147, 2487 1148, 2486 1148 C 2485 1149, 2484 1151, 2483 1152 C 2483 1154, 2481 1158, 2479 1161 C 2477 1163, 2475 1168, 2474 1171 C 2472 1173, 2471 1176, 2470 1176 C 2470 1177, 2469 1178, 2468 1180 C 2468 1182, 2467 1184, 2467 1185 C 2466 1186, 2465 1188, 2464 1191 C 2463 1193, 2462 1198, 2460 1202 C 2458 1206, 2457 1211, 2457 1213 C 2457 1214, 2456 1218, 2455 1221 C 2454 1226, 2454 1226, 2455 1228 C 2457 1230, 2457 1234, 2456 1237 C 2454 1239, 2457 1249, 2462 1253 C 2465 1256, 2466 1256, 2475 1256 C 2485 1256, 2489 1255, 2501 1249 C 2518 1240, 2555 1205, 2581 1172 C 2586 1166, 2590 1161, 2591 1160 C 2599 1151, 2621 1121, 2633 1105 C 2636 1100, 2641 1092, 2645 1088 C 2648 1083, 2652 1076, 2654 1074 C 2656 1072, 2658 1068, 2659 1067 C 2660 1066, 2665 1058, 2670 1050 C 2684 1030, 2685 1028, 2691 1019 C 2694 1014, 2699 1007, 2702 1003 C 2704 999, 2708 993, 2710 991 L 2713 986 2723 983 C 2728 981, 2735 980, 2737 980 C 2739 979, 2745 978, 2750 978 C 2769 974, 2774 974, 2790 974 C 2806 974, 2809 974, 2813 976 C 2819 978, 2824 981, 2824 983 C 2824 986, 2812 995, 2801 1001 C 2800 1001, 2799 1003, 2799 1004 C 2797 1017, 2831 1004, 2842 988 C 2845 984, 2845 983, 2845 975 L 2845 967 2840 962 C 2831 953, 2829 952, 2795 953 C 2766 953, 2761 953, 2750 956 C 2747 956, 2743 957, 2739 957 C 2732 958, 2731 957, 2734 952 C 2742 940, 2749 930, 2753 922 C 2755 919, 2757 915, 2758 913 C 2760 912, 2761 910, 2761 909 C 2761 908, 2768 896, 2773 890 C 2774 888, 2778 882, 2780 877 C 2783 873, 2786 869, 2786 869 C 2787 869, 2787 868, 2788 867 C 2788 864, 2790 861, 2799 848 C 2801 844, 2805 838, 2806 836 C 2807 834, 2809 831, 2811 829 C 2812 828, 2813 825, 2813 823 C 2814 821, 2816 818, 2817 816 C 2819 814, 2822 810, 2823 807 C 2824 805, 2826 802, 2828 800 C 2829 799, 2830 797, 2829 796 C 2829 795, 2830 793, 2834 788 C 2837 785, 2839 781, 2840 780 C 2840 778, 2841 776, 2843 775 C 2844 773, 2845 772, 2845 769 C 2845 767, 2846 766, 2847 765 C 2850 763, 2856 755, 2856 752 C 2856 751, 2857 749, 2859 748 C 2860 747, 2861 746, 2861 744 C 2861 741, 2862 739, 2866 735 C 2869 733, 2872 729, 2872 728 C 2873 727, 2874 725, 2874 724 C 2875 723, 2877 720, 2878 718 C 2880 715, 2883 711, 2884 708 C 2890 700, 2902 682, 2904 677 C 2905 676, 2906 674, 2906 673 C 2913 665, 2905 654, 2893 654 C 2887 654, 2887 654, 2883 658 C 2876 666, 2873 669, 2872 672 C 2870 676, 2849 702, 2845 707 C 2843 708, 2840 710, 2839 712 C 2838 713, 2836 715, 2834 717 C 2833 719, 2829 723, 2810 744 C 2777 778, 2730 824, 2713 837 C 2709 840, 2704 844, 2700 847 C 2697 850, 2691 854, 2688 856 C 2685 858, 2680 862, 2678 864 C 2676 866, 2671 869, 2669 871 C 2666 872, 2663 874, 2661 876 C 2659 878, 2643 886, 2631 891 C 2619 897, 2598 899, 2590 896 C 2581 892, 2574 878, 2576 867 C 2577 859, 2580 844, 2581 841 C 2582 840, 2583 836, 2584 834 C 2585 832, 2586 829, 2586 828 C 2587 827, 2588 825, 2589 824 C 2589 823, 2592 817, 2595 812 C 2598 807, 2600 802, 2600 802 C 2600 801, 2615 776, 2618 772 C 2619 771, 2622 768, 2623 766 C 2624 764, 2629 758, 2633 752 C 2637 746, 2641 740, 2641 740 C 2641 739, 2642 737, 2648 731 C 2649 729, 2652 725, 2654 722 C 2656 719, 2660 714, 2662 710 C 2665 707, 2669 702, 2671 698 C 2675 693, 2685 678, 2691 671 C 2697 662, 2720 625, 2720 623 C 2720 623, 2721 622, 2722 620 C 2723 618, 2725 616, 2725 614 C 2726 612, 2727 610, 2728 609 C 2728 608, 2729 606, 2730 604 C 2730 602, 2732 600, 2733 598 C 2734 597, 2735 594, 2736 592 C 2737 590, 2737 588, 2738 588 C 2739 588, 2741 583, 2741 581 C 2741 579, 2742 578, 2742 576 C 2744 574, 2752 551, 2752 549 C 2752 548, 2753 544, 2754 541 C 2755 538, 2757 528, 2758 518 C 2759 502, 2759 501, 2758 491 C 2753 466, 2740 447, 2720 438 C 2714 435, 2710 433, 2709 433 C 2708 433, 2707 432, 2705 431 C 2701 429, 2666 424, 2661 425 C 2660 425, 2657 426, 2654 426 M 760 480 C 750 483, 740 489, 740 494 C 740 494, 739 495, 738 496 C 736 497, 735 499, 735 501 C 734 503, 733 506, 731 507 C 730 509, 729 510, 729 512 C 729 514, 728 516, 727 518 C 725 519, 724 521, 724 522 C 724 524, 722 527, 719 531 C 716 534, 714 539, 713 540 C 713 542, 712 544, 710 544 C 709 546, 708 547, 708 549 C 708 552, 707 553, 706 555 C 704 556, 703 558, 703 560 C 703 562, 702 563, 701 564 C 699 565, 693 574, 693 576 C 693 578, 691 581, 689 581 C 688 581, 688 582, 688 584 C 688 586, 687 588, 685 590 C 683 592, 682 595, 682 596 C 682 597, 680 601, 677 604 C 674 608, 672 611, 672 612 C 672 614, 671 616, 670 617 C 668 617, 667 620, 667 622 C 666 623, 665 626, 664 628 C 662 629, 660 633, 658 636 C 656 639, 654 643, 653 644 C 652 645, 651 647, 651 648 C 651 650, 650 652, 648 654 C 646 655, 645 657, 645 659 C 645 661, 644 663, 642 665 C 637 671, 636 672, 636 674 C 636 675, 634 678, 632 680 C 630 682, 629 684, 629 685 C 630 686, 629 688, 627 690 C 625 692, 624 694, 624 695 C 624 698, 619 704, 616 706 C 614 707, 614 708, 614 711 C 614 714, 613 715, 612 717 C 610 717, 609 719, 609 722 C 608 724, 607 727, 604 730 C 602 732, 599 736, 598 738 C 598 740, 596 742, 595 743 C 594 745, 591 750, 588 756 C 585 762, 581 768, 580 769 C 578 770, 577 772, 577 774 C 577 776, 576 778, 575 779 C 573 781, 572 783, 572 784 C 572 786, 570 789, 567 793 C 564 796, 562 799, 562 800 C 562 801, 561 803, 559 804 C 558 806, 557 808, 556 811 C 556 814, 555 815, 553 817 C 551 818, 551 819, 551 821 C 552 824, 551 825, 548 827 C 547 827, 546 829, 545 831 C 545 833, 544 835, 543 836 C 542 837, 541 839, 541 840 C 541 842, 542 843, 549 843 C 557 843, 557 843, 566 839 C 577 833, 579 831, 588 815 C 589 813, 591 808, 594 804 C 596 800, 598 797, 598 796 C 598 796, 599 794, 601 792 C 603 790, 604 788, 604 787 C 604 786, 605 784, 606 783 C 607 782, 608 779, 609 778 C 612 771, 615 766, 618 764 C 619 763, 620 761, 620 760 C 620 759, 621 757, 622 756 C 623 755, 624 752, 625 750 C 626 748, 627 746, 627 746 C 627 745, 630 742, 632 738 C 634 735, 636 730, 638 729 C 639 728, 640 725, 641 723 C 642 721, 643 719, 644 718 C 644 717, 645 716, 645 716 C 645 715, 647 712, 649 707 C 656 696, 656 695, 659 692 C 660 690, 661 688, 661 688 C 661 687, 662 685, 663 684 C 664 683, 667 678, 669 673 C 675 662, 677 658, 680 655 C 681 654, 683 650, 684 648 C 686 643, 687 642, 690 637 C 691 635, 692 632, 693 630 C 693 627, 695 624, 698 620 C 701 616, 703 613, 703 612 C 703 611, 704 609, 706 607 C 709 604, 709 603, 709 601 C 708 598, 708 598, 711 597 C 712 596, 713 595, 713 595 C 713 595, 713 593, 713 592 C 713 590, 716 587, 719 583 C 722 580, 724 576, 724 575 C 724 574, 725 572, 727 571 C 728 569, 729 568, 729 566 C 729 563, 730 562, 732 560 C 734 558, 735 556, 735 554 C 735 552, 736 551, 737 549 C 739 549, 740 546, 741 545 C 741 542, 746 534, 748 532 C 749 531, 750 530, 750 528 C 750 527, 751 525, 753 523 C 755 521, 756 520, 756 517 C 756 515, 757 514, 759 513 C 760 511, 761 510, 761 508 C 761 505, 762 504, 764 502 C 765 501, 766 499, 766 497 C 766 496, 768 493, 770 491 C 773 487, 774 482, 772 480 C 770 479, 766 479, 760 480 M 1628 498 C 1626 499, 1622 500, 1620 502 C 1617 503, 1612 506, 1609 508 C 1606 510, 1603 512, 1602 512 C 1599 513, 1573 531, 1564 538 C 1552 547, 1529 569, 1522 577 C 1509 594, 1503 612, 1510 618 C 1513 620, 1514 620, 1519 620 C 1526 619, 1535 616, 1537 615 C 1538 614, 1540 613, 1543 611 C 1565 601, 1608 560, 1619 538 C 1620 535, 1622 532, 1623 532 C 1624 530, 1631 515, 1631 513 C 1631 512, 1632 510, 1633 509 C 1638 498, 1636 493, 1628 498 M 1789 574 C 1777 580, 1760 595, 1743 613 C 1729 629, 1725 634, 1723 637 C 1721 640, 1714 649, 1710 653 C 1709 655, 1696 671, 1693 675 C 1692 677, 1690 680, 1688 683 C 1686 685, 1683 690, 1679 695 C 1676 700, 1672 705, 1670 707 C 1669 710, 1666 713, 1665 716 C 1664 718, 1661 721, 1660 724 C 1655 730, 1646 744, 1642 751 C 1640 754, 1638 757, 1637 758 C 1637 759, 1636 760, 1636 760 C 1636 761, 1624 781, 1621 784 C 1621 785, 1618 789, 1616 793 C 1614 798, 1610 803, 1609 806 C 1604 813, 1596 827, 1589 840 C 1588 841, 1587 844, 1585 846 C 1584 847, 1583 850, 1582 852 C 1580 857, 1577 862, 1575 864 C 1574 865, 1573 867, 1572 868 C 1572 869, 1571 871, 1571 872 C 1570 873, 1565 882, 1559 893 C 1555 902, 1553 905, 1550 910 C 1550 911, 1548 914, 1547 917 C 1546 919, 1544 922, 1543 924 C 1542 925, 1541 927, 1541 928 C 1541 930, 1540 931, 1539 932 C 1538 933, 1537 936, 1536 937 C 1536 939, 1535 942, 1533 945 C 1532 947, 1531 951, 1530 955 C 1530 958, 1530 962, 1530 964 C 1529 968, 1533 972, 1536 972 C 1542 972, 1553 965, 1569 950 C 1575 945, 1582 939, 1584 938 C 1586 937, 1589 934, 1591 932 C 1602 922, 1628 898, 1631 897 C 1632 896, 1635 894, 1637 891 C 1640 889, 1644 885, 1647 883 C 1649 881, 1652 879, 1653 879 C 1655 876, 1663 870, 1664 870 C 1667 870, 1666 871, 1662 878 C 1659 882, 1653 892, 1649 901 L 1641 917 1640 930 L 1640 943 1644 947 C 1648 953, 1650 953, 1665 953 C 1674 952, 1678 952, 1681 950 C 1683 949, 1687 948, 1689 948 C 1692 947, 1696 945, 1710 939 C 1730 929, 1737 925, 1741 922 C 1742 921, 1744 920, 1744 920 C 1745 920, 1749 918, 1752 915 C 1768 905, 1770 904, 1775 901 C 1777 901, 1778 900, 1779 900 C 1780 901, 1778 907, 1774 914 C 1772 919, 1772 921, 1771 932 L 1771 944 1775 948 L 1780 953 1790 953 C 1803 953, 1814 950, 1828 944 C 1830 943, 1834 942, 1835 942 C 1836 941, 1838 940, 1839 939 C 1840 939, 1842 937, 1845 937 C 1847 936, 1851 934, 1853 933 C 1855 931, 1859 929, 1862 928 C 1864 927, 1867 925, 1869 924 C 1871 922, 1873 921, 1873 921 C 1874 921, 1875 920, 1877 919 C 1879 918, 1883 915, 1886 914 C 1889 912, 1892 910, 1894 908 C 1895 907, 1899 905, 1903 903 C 1906 901, 1910 899, 1912 897 C 1913 896, 1918 892, 1923 889 C 1928 887, 1933 883, 1935 882 C 1936 880, 1941 876, 1946 873 C 1950 869, 1955 865, 1956 865 C 1957 864, 1961 861, 1964 859 C 1970 852, 1973 851, 1974 851 C 1976 852, 1976 856, 1974 858 C 1973 859, 1972 861, 1971 864 C 1970 866, 1968 868, 1967 869 C 1966 870, 1965 871, 1965 871 C 1965 872, 1964 874, 1963 875 C 1962 876, 1961 879, 1960 880 C 1960 881, 1959 884, 1957 885 C 1953 889, 1946 898, 1945 902 C 1944 904, 1941 908, 1939 911 C 1937 914, 1934 918, 1933 920 C 1933 922, 1931 924, 1931 924 C 1930 924, 1930 926, 1929 928 C 1928 930, 1927 933, 1926 934 C 1925 935, 1924 936, 1924 937 C 1924 938, 1923 941, 1922 943 C 1919 953, 1926 962, 1932 956 C 1934 954, 1936 953, 1937 953 C 1940 952, 1944 950, 1950 945 C 1951 944, 1955 941, 1957 940 C 1959 939, 1963 936, 1965 935 C 1973 928, 1974 927, 1984 922 C 1986 920, 1989 918, 1991 916 C 1994 914, 1997 912, 1999 911 C 2001 910, 2005 907, 2007 905 C 2010 902, 2013 900, 2014 900 C 2014 900, 2015 899, 2016 899 C 2016 898, 2018 897, 2019 896 C 2021 895, 2024 894, 2025 892 C 2043 876, 2051 876, 2037 893 C 2035 895, 2033 898, 2032 899 C 2032 901, 2030 905, 2028 908 C 2022 917, 2019 938, 2022 945 C 2025 950, 2029 952, 2037 953 C 2046 954, 2062 953, 2067 950 C 2069 949, 2071 948, 2072 948 C 2074 948, 2089 942, 2104 934 C 2106 933, 2108 932, 2109 932 C 2110 932, 2111 931, 2112 930 C 2114 928, 2125 921, 2127 921 C 2127 921, 2128 920, 2129 919 C 2130 918, 2132 917, 2134 917 C 2135 916, 2137 915, 2138 915 C 2141 912, 2150 906, 2151 906 C 2153 906, 2153 911, 2151 914 C 2150 916, 2150 921, 2149 926 L 2149 935 2153 940 C 2158 948, 2161 948, 2175 948 C 2187 947, 2205 942, 2210 938 C 2212 938, 2213 937, 2214 937 C 2215 937, 2217 936, 2219 935 C 2221 933, 2223 932, 2224 932 C 2225 932, 2227 931, 2229 929 C 2232 925, 2238 926, 2241 931 C 2243 935, 2243 935, 2242 937 C 2238 941, 2243 951, 2251 953 C 2257 954, 2276 953, 2280 951 C 2282 950, 2284 949, 2286 948 C 2288 948, 2292 946, 2296 945 C 2299 943, 2303 942, 2303 942 C 2304 942, 2306 941, 2308 940 C 2310 938, 2312 937, 2313 937 C 2314 937, 2316 936, 2317 935 C 2318 934, 2321 933, 2324 932 C 2326 931, 2328 931, 2328 930 C 2328 929, 2336 925, 2348 918 C 2349 917, 2355 914, 2360 910 C 2365 907, 2373 902, 2378 899 C 2382 896, 2386 893, 2387 893 C 2388 892, 2390 890, 2392 890 C 2396 888, 2401 883, 2401 880 C 2401 874, 2396 872, 2392 877 C 2391 878, 2389 879, 2388 879 C 2387 879, 2385 880, 2384 882 C 2383 883, 2381 884, 2380 884 C 2380 884, 2378 885, 2376 887 C 2375 888, 2373 889, 2372 889 C 2372 889, 2369 891, 2366 892 C 2359 898, 2316 919, 2310 921 C 2308 921, 2305 922, 2304 923 C 2297 928, 2276 930, 2274 926 C 2271 922, 2272 915, 2280 904 C 2281 901, 2283 898, 2284 896 C 2285 894, 2287 891, 2289 889 C 2298 878, 2289 866, 2278 876 C 2274 879, 2259 892, 2253 897 C 2250 899, 2245 902, 2240 906 C 2239 906, 2236 908, 2232 911 C 2223 917, 2214 920, 2204 921 C 2188 922, 2186 917, 2191 898 C 2192 894, 2194 891, 2194 890 C 2195 890, 2196 889, 2196 887 C 2200 879, 2223 855, 2238 845 C 2241 843, 2247 839, 2250 836 C 2253 834, 2256 832, 2256 832 C 2257 832, 2259 831, 2260 830 C 2269 823, 2286 817, 2295 817 C 2303 817, 2305 819, 2305 827 C 2305 832, 2305 833, 2301 837 C 2291 849, 2289 853, 2293 856 C 2295 859, 2299 859, 2302 857 C 2303 856, 2307 853, 2310 851 C 2332 836, 2339 816, 2326 803 C 2323 801, 2322 800, 2314 800 C 2309 800, 2304 799, 2303 799 C 2302 798, 2301 798, 2299 799 C 2297 799, 2293 800, 2290 800 C 2280 802, 2264 808, 2241 821 C 2232 826, 2215 838, 2201 848 C 2191 856, 2168 879, 2168 881 C 2168 882, 2156 890, 2141 898 C 2126 906, 2110 914, 2105 916 C 2103 916, 2100 918, 2099 918 C 2099 919, 2097 920, 2095 921 C 2094 921, 2091 922, 2090 923 C 2084 926, 2068 929, 2065 928 C 2063 928, 2062 927, 2062 928 C 2061 929, 2054 928, 2051 927 C 2047 924, 2048 920, 2058 904 C 2062 898, 2080 874, 2083 870 C 2084 869, 2086 866, 2087 864 C 2088 861, 2090 857, 2092 855 C 2098 848, 2098 839, 2092 837 C 2083 835, 2080 836, 2069 845 C 2063 849, 2057 853, 2057 853 C 2056 853, 2054 855, 2051 857 C 2045 863, 2040 867, 2036 868 C 2035 869, 2033 870, 2033 871 C 2032 872, 2027 876, 2018 883 C 2014 885, 2007 890, 2003 894 C 1998 897, 1992 902, 1989 905 C 1986 908, 1982 911, 1981 911 C 1979 912, 1975 915, 1973 917 C 1970 919, 1967 921, 1967 921 C 1964 921, 1964 918, 1965 916 C 1966 915, 1968 911, 1970 909 C 1975 902, 1981 893, 1984 888 C 1985 886, 1988 882, 1989 881 C 1991 879, 1992 876, 1992 875 C 1993 874, 1994 872, 1995 871 C 1996 869, 1998 866, 1999 864 C 2000 862, 2003 857, 2005 855 C 2006 852, 2008 850, 2008 849 C 2008 848, 2009 845, 2011 843 C 2013 837, 2014 827, 2012 823 C 2010 819, 2006 818, 2001 820 C 1999 821, 1997 822, 1996 822 C 1995 822, 1992 824, 1989 827 C 1986 829, 1981 833, 1978 835 C 1974 838, 1968 842, 1964 846 C 1961 850, 1957 853, 1956 853 C 1955 853, 1950 856, 1945 860 C 1940 863, 1935 867, 1933 868 C 1928 872, 1927 873, 1924 875 C 1916 881, 1912 884, 1910 884 C 1909 885, 1906 886, 1905 887 C 1904 889, 1901 891, 1900 891 C 1898 892, 1895 894, 1893 895 C 1890 897, 1887 898, 1886 899 C 1885 900, 1882 901, 1881 902 C 1880 902, 1877 903, 1876 904 C 1875 905, 1872 906, 1871 907 C 1870 907, 1866 909, 1863 910 C 1861 912, 1858 913, 1858 914 C 1857 914, 1856 915, 1854 916 C 1852 916, 1848 917, 1846 919 C 1844 920, 1841 921, 1840 921 C 1839 921, 1838 922, 1836 923 C 1830 926, 1819 928, 1812 928 C 1805 928, 1804 928, 1802 925 C 1800 922, 1800 922, 1803 913 C 1805 906, 1809 899, 1811 897 C 1812 895, 1813 893, 1813 892 C 1814 890, 1815 888, 1822 878 C 1823 876, 1824 874, 1824 874 C 1824 873, 1825 871, 1826 870 C 1828 868, 1830 865, 1833 859 C 1834 858, 1837 854, 1839 850 C 1842 847, 1846 842, 1847 840 C 1848 838, 1852 833, 1855 830 C 1861 824, 1862 822, 1860 817 C 1859 813, 1849 809, 1844 812 C 1841 814, 1832 824, 1824 834 C 1821 838, 1817 844, 1816 845 C 1814 846, 1811 851, 1808 856 C 1799 868, 1796 872, 1792 875 C 1786 880, 1781 884, 1780 884 C 1780 884, 1778 885, 1776 886 C 1775 888, 1771 890, 1768 892 C 1764 894, 1760 896, 1758 898 C 1756 899, 1754 900, 1753 900 C 1752 900, 1750 901, 1749 903 C 1747 904, 1745 905, 1744 905 C 1743 905, 1740 906, 1739 907 C 1737 909, 1734 910, 1733 910 C 1731 911, 1729 912, 1727 913 C 1726 914, 1724 915, 1724 915 C 1723 915, 1720 916, 1717 918 C 1698 927, 1679 931, 1674 928 C 1672 926, 1672 911, 1674 909 C 1674 908, 1676 906, 1676 903 C 1678 899, 1681 895, 1693 879 C 1697 874, 1701 868, 1701 868 C 1701 867, 1703 865, 1704 863 C 1715 852, 1720 846, 1720 845 C 1720 845, 1721 843, 1723 841 C 1725 838, 1725 837, 1725 830 L 1726 822 1722 819 C 1715 815, 1708 818, 1683 837 C 1669 847, 1645 868, 1631 881 C 1627 885, 1622 889, 1621 889 C 1620 890, 1614 895, 1603 904 C 1600 907, 1596 910, 1594 912 C 1592 914, 1589 916, 1586 918 C 1584 919, 1580 921, 1579 923 C 1572 930, 1570 931, 1569 930 C 1568 928, 1568 927, 1570 924 C 1571 923, 1572 920, 1572 918 C 1573 916, 1574 913, 1575 912 C 1576 911, 1577 908, 1578 906 C 1578 905, 1579 902, 1580 901 C 1582 898, 1590 884, 1596 872 C 1599 867, 1602 862, 1602 861 C 1603 860, 1604 859, 1604 858 C 1604 858, 1605 856, 1606 854 C 1608 853, 1609 850, 1610 849 C 1610 848, 1611 845, 1613 844 C 1614 842, 1615 840, 1615 840 C 1615 839, 1619 834, 1623 828 C 1626 825, 1645 807, 1659 795 C 1665 789, 1669 786, 1700 756 C 1727 729, 1749 706, 1772 679 C 1779 672, 1782 667, 1782 665 C 1782 663, 1783 661, 1786 660 C 1792 655, 1807 635, 1815 618 C 1822 603, 1826 588, 1823 584 C 1822 583, 1821 581, 1821 580 C 1817 570, 1803 567, 1789 574 M 1787 596 C 1780 600, 1770 610, 1764 617 C 1762 621, 1759 624, 1759 624 C 1758 624, 1757 626, 1756 628 C 1754 629, 1751 634, 1748 639 C 1744 643, 1741 647, 1740 649 C 1739 650, 1735 656, 1730 663 C 1725 670, 1721 676, 1720 677 C 1719 678, 1717 681, 1715 684 C 1714 686, 1710 691, 1706 696 C 1703 701, 1697 709, 1694 715 C 1690 720, 1685 727, 1684 729 C 1683 732, 1681 734, 1680 736 C 1678 737, 1671 750, 1667 756 C 1666 758, 1663 762, 1661 766 C 1648 785, 1649 787, 1664 773 C 1708 730, 1739 698, 1752 681 C 1754 677, 1757 674, 1758 673 C 1761 670, 1774 652, 1779 645 C 1780 642, 1782 638, 1784 636 C 1785 634, 1786 631, 1787 630 C 1788 629, 1788 627, 1789 626 C 1793 621, 1796 607, 1796 600 C 1797 591, 1794 590, 1787 596 M 1895 726 C 1891 727, 1888 729, 1888 730 C 1888 730, 1887 731, 1886 732 C 1879 734, 1873 744, 1873 753 C 1873 760, 1877 768, 1881 769 C 1891 771, 1908 762, 1912 751 C 1913 750, 1914 747, 1915 746 C 1917 743, 1919 734, 1917 730 C 1915 726, 1909 722, 1906 722 C 1904 722, 1899 724, 1895 726 M 3445 726 C 3429 734, 3424 740, 3423 751 C 3422 763, 3427 769, 3436 769 C 3442 769, 3442 769, 3454 761 C 3460 758, 3468 742, 3468 735 C 3468 732, 3468 730, 3464 727 C 3458 721, 3455 721, 3445 726 M 963 743 C 935 753, 905 785, 905 804 C 905 814, 910 822, 919 827 C 922 829, 925 830, 926 831 C 927 831, 929 832, 930 832 C 936 834, 934 837, 919 851 C 912 858, 905 864, 904 864 C 903 865, 899 868, 896 871 C 892 874, 886 879, 882 881 C 872 887, 871 888, 871 890 C 871 894, 874 896, 877 895 C 887 893, 913 872, 938 847 C 948 837, 947 837, 962 840 C 973 842, 975 843, 975 846 C 975 847, 970 852, 968 852 C 968 852, 966 854, 963 856 C 961 859, 955 865, 948 870 C 934 884, 917 905, 917 909 C 917 910, 916 912, 915 913 C 913 916, 912 922, 912 933 C 911 950, 915 953, 933 953 C 948 953, 959 949, 986 936 C 1005 927, 1007 926, 1009 924 C 1010 923, 1012 921, 1014 921 C 1016 920, 1019 918, 1022 917 C 1024 915, 1027 913, 1028 912 C 1032 910, 1046 901, 1051 897 C 1053 896, 1058 893, 1061 891 C 1066 888, 1068 886, 1069 884 C 1073 876, 1069 870, 1064 876 C 1061 879, 1058 880, 1051 884 C 1050 885, 1048 886, 1047 887 C 1045 888, 1042 890, 1032 896 C 1030 897, 1027 899, 1025 900 C 1022 901, 1020 902, 1019 903 C 1018 904, 1016 905, 1014 905 C 1012 906, 1009 908, 1008 908 C 1000 913, 993 916, 992 916 C 991 916, 989 917, 987 919 C 985 920, 983 921, 982 921 C 980 921, 978 922, 977 923 C 975 924, 970 926, 966 927 C 951 931, 942 928, 942 919 C 942 914, 945 901, 947 898 C 948 897, 949 894, 950 892 C 955 883, 973 865, 984 858 C 992 852, 996 848, 998 840 C 1000 835, 1000 834, 999 831 C 997 827, 991 821, 988 821 C 987 821, 985 820, 983 819 C 980 818, 976 817, 974 817 C 968 816, 967 814, 971 809 C 990 788, 998 753, 985 744 C 982 742, 967 742, 963 743 M 950 764 C 948 765, 942 770, 937 774 C 929 783, 926 788, 926 795 C 926 802, 938 810, 949 812 L 955 812 960 806 C 963 803, 965 799, 965 798 C 965 798, 966 796, 967 794 C 972 788, 973 772, 970 765 L 968 761 961 761 C 956 761, 954 762, 950 764 M 3132 774 C 3126 777, 3121 780, 3120 781 C 3120 782, 3117 784, 3115 786 C 3101 796, 3089 811, 3085 824 C 3082 833, 3081 846, 3083 850 C 3084 851, 3085 854, 3085 855 C 3085 859, 3061 879, 3049 884 C 3047 885, 3046 886, 3046 887 C 3046 887, 3045 888, 3044 889 C 3043 889, 3040 890, 3038 892 C 3034 895, 3031 896, 3008 908 C 2986 919, 2984 920, 2981 921 C 2979 921, 2976 922, 2974 923 C 2970 926, 2961 928, 2953 928 L 2945 928 2943 924 C 2942 920, 2942 920, 2943 917 C 2944 915, 2945 913, 2945 913 C 2945 912, 2946 909, 2947 908 C 2949 906, 2951 903, 2952 900 C 2953 898, 2955 895, 2956 893 C 2957 892, 2958 890, 2959 889 C 2960 888, 2962 886, 2962 883 C 2965 878, 2963 875, 2958 873 C 2954 872, 2953 872, 2943 881 C 2935 888, 2914 904, 2912 905 C 2911 905, 2908 907, 2906 909 C 2888 921, 2865 925, 2861 917 C 2856 908, 2862 891, 2876 874 C 2883 866, 2902 849, 2908 845 C 2912 843, 2921 836, 2923 834 C 2924 833, 2926 832, 2927 832 C 2927 832, 2930 831, 2931 830 C 2933 828, 2935 827, 2936 827 C 2937 827, 2939 826, 2941 825 C 2951 818, 2968 815, 2973 819 C 2978 822, 2977 830, 2972 836 C 2971 839, 2969 841, 2968 841 C 2967 841, 2962 850, 2962 853 C 2962 856, 2964 858, 2969 858 C 2972 858, 2987 847, 2993 841 C 3004 827, 3006 816, 2997 806 C 2993 800, 2990 799, 2973 800 C 2953 800, 2947 802, 2912 820 C 2905 824, 2885 837, 2872 848 C 2863 854, 2843 875, 2837 883 C 2829 894, 2823 908, 2820 923 C 2818 933, 2822 943, 2830 946 C 2839 951, 2864 947, 2880 939 C 2881 938, 2884 937, 2884 937 C 2885 937, 2887 936, 2889 935 C 2891 933, 2893 932, 2895 932 C 2896 932, 2898 931, 2899 930 C 2905 923, 2916 930, 2912 937 C 2909 941, 2910 942, 2914 947 C 2917 951, 2918 952, 2923 953 C 2930 955, 2946 953, 2952 950 C 2955 949, 2957 948, 2959 948 C 2960 948, 2963 947, 2966 945 C 2969 943, 2972 942, 2973 942 C 2974 942, 2976 941, 2978 940 C 2980 938, 2983 937, 2984 937 C 2986 936, 2988 935, 2990 934 C 2991 933, 2993 932, 2994 932 C 2995 932, 2997 931, 2999 930 C 3000 928, 3005 925, 3009 923 C 3014 920, 3019 917, 3021 916 C 3024 915, 3027 913, 3029 912 C 3031 910, 3034 908, 3037 906 C 3039 904, 3043 902, 3046 901 C 3048 900, 3050 899, 3050 898 C 3051 897, 3059 892, 3063 889 C 3065 888, 3069 886, 3071 883 C 3081 874, 3088 869, 3090 869 C 3093 869, 3094 870, 3110 883 C 3112 886, 3116 888, 3117 889 C 3120 891, 3118 895, 3115 895 C 3112 895, 3093 901, 3087 903 C 3085 904, 3083 905, 3082 905 C 3081 905, 3078 906, 3076 907 C 3073 909, 3070 910, 3069 911 C 3064 912, 3046 924, 3041 930 C 3035 937, 3033 941, 3033 950 L 3033 958 3038 963 L 3043 968 3053 969 C 3076 972, 3097 968, 3118 957 C 3145 943, 3156 929, 3156 910 C 3156 888, 3150 879, 3121 853 C 3117 849, 3114 846, 3114 845 C 3114 844, 3117 840, 3121 836 C 3125 831, 3130 827, 3131 825 C 3136 820, 3137 818, 3143 811 C 3146 807, 3149 803, 3149 802 C 3150 801, 3152 798, 3153 796 C 3160 787, 3160 787, 3160 780 C 3161 767, 3152 765, 3132 774 M 3279 771 C 3276 773, 3273 774, 3273 774 C 3270 774, 3254 786, 3246 794 C 3227 811, 3220 829, 3223 848 C 3224 856, 3224 856, 3222 859 C 3218 865, 3202 878, 3189 885 C 3183 888, 3184 895, 3191 895 C 3196 895, 3204 890, 3221 875 C 3225 871, 3230 868, 3231 868 C 3233 868, 3239 873, 3247 882 C 3249 883, 3251 885, 3254 886 C 3260 890, 3260 895, 3254 895 C 3252 895, 3245 897, 3232 901 C 3204 911, 3182 925, 3175 938 C 3173 942, 3173 943, 3174 946 C 3175 949, 3175 951, 3174 952 C 3172 956, 3174 962, 3181 966 C 3185 968, 3198 971, 3201 969 C 3202 968, 3204 968, 3207 969 C 3213 970, 3232 968, 3237 966 C 3239 965, 3242 964, 3244 964 C 3249 962, 3256 959, 3259 956 C 3261 954, 3262 953, 3265 953 C 3271 953, 3288 937, 3293 926 C 3297 917, 3297 898, 3293 889 C 3288 878, 3283 873, 3264 854 C 3258 849, 3254 845, 3254 844 C 3254 844, 3258 840, 3262 835 C 3267 830, 3275 820, 3281 813 C 3287 805, 3293 798, 3294 796 C 3295 795, 3296 794, 3296 793 C 3296 792, 3297 790, 3299 788 C 3302 783, 3302 776, 3298 772 C 3295 768, 3286 768, 3279 771 M 3821 770 C 3811 771, 3793 775, 3787 778 C 3784 779, 3781 780, 3780 780 C 3778 780, 3747 795, 3743 798 C 3742 799, 3740 800, 3739 800 C 3734 800, 3700 827, 3694 837 C 3686 848, 3686 860, 3693 865 C 3698 869, 3710 873, 3715 873 C 3720 873, 3723 875, 3722 877 C 3722 878, 3721 879, 3721 879 C 3719 879, 3713 883, 3703 890 C 3695 896, 3689 900, 3686 900 C 3685 901, 3682 903, 3679 904 C 3677 906, 3673 908, 3671 909 C 3669 909, 3665 911, 3663 912 C 3660 914, 3657 915, 3655 916 C 3653 917, 3651 918, 3650 919 C 3649 919, 3647 920, 3645 921 C 3643 921, 3641 922, 3639 923 C 3632 927, 3605 930, 3602 927 C 3599 924, 3600 919, 3604 911 C 3609 902, 3618 889, 3620 889 C 3620 888, 3621 887, 3621 887 C 3621 886, 3623 883, 3625 880 C 3631 872, 3636 865, 3636 864 C 3636 863, 3638 860, 3640 857 C 3650 845, 3649 838, 3637 837 C 3631 836, 3628 837, 3623 841 C 3620 844, 3618 846, 3609 851 C 3603 856, 3593 863, 3590 866 C 3589 867, 3588 868, 3587 868 C 3587 868, 3585 869, 3584 871 C 3583 872, 3581 873, 3581 873 C 3580 873, 3578 874, 3576 876 C 3574 878, 3571 881, 3569 882 C 3566 883, 3562 887, 3559 889 C 3547 899, 3545 900, 3544 900 C 3544 900, 3541 902, 3538 906 C 3535 909, 3533 911, 3531 911 C 3530 911, 3529 912, 3528 913 C 3527 913, 3525 915, 3524 916 C 3522 916, 3521 918, 3520 919 C 3520 920, 3519 921, 3518 921 C 3515 920, 3514 917, 3517 914 C 3519 913, 3520 910, 3521 908 C 3522 907, 3523 904, 3524 903 C 3525 902, 3526 901, 3526 901 C 3526 900, 3527 898, 3529 896 C 3531 894, 3532 891, 3533 890 C 3534 889, 3535 885, 3537 883 C 3539 881, 3541 877, 3541 876 C 3542 875, 3543 872, 3545 871 C 3547 868, 3556 853, 3559 845 C 3563 836, 3564 828, 3562 824 C 3560 820, 3555 818, 3552 819 C 3551 820, 3548 821, 3547 821 C 3546 822, 3542 824, 3539 827 C 3536 830, 3533 832, 3532 833 C 3528 834, 3521 839, 3518 843 C 3514 847, 3506 853, 3505 853 C 3504 853, 3502 854, 3501 856 C 3499 858, 3497 859, 3496 859 C 3496 859, 3494 860, 3493 861 C 3492 862, 3490 864, 3489 865 C 3481 870, 3474 875, 3468 879 C 3465 882, 3461 884, 3460 884 C 3460 884, 3458 885, 3457 886 C 3455 888, 3447 893, 3438 898 C 3434 900, 3429 902, 3428 903 C 3427 904, 3425 905, 3424 905 C 3423 905, 3422 906, 3421 906 C 3420 907, 3418 909, 3415 909 C 3412 910, 3409 912, 3409 913 C 3408 914, 3405 915, 3404 916 C 3402 916, 3399 917, 3397 918 C 3387 923, 3368 929, 3361 929 C 3358 929, 3356 928, 3353 926 C 3350 922, 3350 922, 3351 919 C 3352 917, 3353 914, 3353 912 C 3354 910, 3356 905, 3358 901 C 3360 897, 3363 892, 3364 890 C 3365 888, 3367 884, 3369 882 C 3371 880, 3373 876, 3374 873 C 3375 871, 3377 869, 3377 869 C 3378 868, 3380 867, 3381 865 C 3383 859, 3385 855, 3390 850 C 3392 847, 3395 843, 3396 842 C 3397 838, 3398 837, 3405 830 C 3413 822, 3414 818, 3406 813 C 3399 809, 3395 810, 3387 819 C 3376 830, 3354 859, 3348 870 C 3347 871, 3346 873, 3345 873 C 3345 874, 3344 876, 3343 878 C 3343 882, 3342 883, 3340 884 C 3339 885, 3337 887, 3336 889 C 3323 915, 3322 918, 3321 932 C 3321 945, 3322 948, 3328 952 C 3333 954, 3355 953, 3365 950 C 3379 944, 3384 942, 3393 938 C 3398 935, 3403 932, 3405 932 C 3407 931, 3411 928, 3414 926 C 3417 925, 3421 922, 3423 921 C 3425 920, 3428 919, 3430 918 C 3431 917, 3435 914, 3437 913 C 3439 911, 3443 909, 3445 908 C 3451 903, 3455 901, 3456 901 C 3457 901, 3458 900, 3460 898 C 3462 897, 3468 892, 3474 888 C 3480 885, 3485 881, 3487 880 C 3488 879, 3492 876, 3496 872 C 3501 868, 3505 865, 3507 864 C 3508 863, 3512 861, 3514 858 C 3521 852, 3523 850, 3525 852 C 3527 854, 3526 856, 3524 859 C 3522 860, 3521 862, 3521 864 C 3521 865, 3520 867, 3518 869 C 3513 875, 3512 876, 3511 879 C 3511 880, 3509 884, 3506 886 C 3503 888, 3500 893, 3498 897 C 3496 900, 3493 905, 3490 909 C 3488 912, 3485 916, 3485 918 C 3484 920, 3483 922, 3482 923 C 3481 924, 3480 925, 3480 925 C 3480 926, 3479 929, 3477 931 C 3471 941, 3470 953, 3474 957 C 3477 959, 3479 958, 3483 956 C 3484 954, 3487 953, 3488 952 C 3491 952, 3494 949, 3500 945 C 3501 944, 3505 941, 3507 940 C 3509 939, 3514 935, 3518 932 C 3522 929, 3525 926, 3527 926 C 3529 925, 3535 921, 3542 915 C 3544 914, 3549 910, 3553 908 C 3557 905, 3561 902, 3564 900 C 3566 898, 3568 897, 3569 896 C 3571 895, 3577 891, 3581 887 C 3583 885, 3585 884, 3585 884 C 3586 884, 3587 883, 3588 882 C 3589 881, 3591 880, 3592 880 C 3595 879, 3595 879, 3594 881 C 3594 882, 3593 885, 3592 886 C 3585 895, 3584 896, 3584 897 C 3584 898, 3583 899, 3582 900 C 3579 904, 3573 917, 3571 924 C 3569 937, 3571 946, 3578 951 C 3583 954, 3609 953, 3616 950 C 3618 949, 3621 948, 3622 948 C 3624 948, 3627 947, 3642 940 C 3647 938, 3653 935, 3655 934 C 3657 933, 3661 931, 3663 929 C 3665 928, 3667 927, 3667 927 C 3668 927, 3668 930, 3668 935 C 3669 945, 3672 951, 3679 955 C 3694 964, 3728 962, 3759 950 C 3761 949, 3764 948, 3764 948 C 3766 948, 3801 930, 3807 926 C 3810 925, 3814 922, 3817 921 C 3824 917, 3835 911, 3844 905 C 3846 904, 3851 901, 3855 898 C 3859 896, 3863 893, 3865 892 C 3866 891, 3869 889, 3871 887 C 3876 884, 3878 880, 3877 876 C 3876 873, 3873 873, 3869 877 C 3867 878, 3865 879, 3864 879 C 3864 879, 3862 880, 3861 881 C 3859 883, 3852 887, 3839 894 C 3836 896, 3833 898, 3832 898 C 3831 899, 3830 900, 3829 900 C 3828 900, 3818 905, 3814 907 C 3809 910, 3797 916, 3796 916 C 3795 916, 3793 917, 3792 918 C 3791 919, 3788 920, 3787 920 C 3786 921, 3782 922, 3780 923 C 3772 927, 3763 931, 3759 931 C 3757 932, 3753 933, 3750 934 C 3745 936, 3742 936, 3727 936 C 3710 936, 3710 936, 3707 934 C 3697 924, 3702 909, 3723 893 C 3726 892, 3729 890, 3730 888 C 3732 887, 3735 885, 3737 885 C 3739 884, 3740 883, 3740 882 C 3740 881, 3742 880, 3744 880 C 3746 879, 3750 876, 3753 874 C 3756 871, 3760 869, 3761 868 C 3762 867, 3764 866, 3764 866 C 3764 866, 3766 864, 3768 863 C 3773 859, 3773 858, 3770 855 C 3768 853, 3767 853, 3752 853 C 3726 854, 3721 853, 3721 844 C 3721 836, 3731 826, 3752 812 C 3783 791, 3803 784, 3813 790 C 3817 793, 3818 798, 3814 800 C 3810 802, 3802 809, 3802 811 C 3801 813, 3802 817, 3805 819 C 3808 820, 3808 820, 3811 819 C 3813 818, 3816 817, 3817 816 C 3818 816, 3821 815, 3823 813 C 3825 812, 3829 809, 3832 807 C 3842 801, 3851 792, 3851 787 C 3853 774, 3843 768, 3821 770 M 3125 793 C 3123 795, 3119 798, 3118 799 C 3114 802, 3109 808, 3106 813 C 3103 818, 3103 819, 3103 825 C 3104 829, 3104 833, 3105 833 C 3107 835, 3111 833, 3113 830 C 3114 828, 3119 823, 3124 818 C 3132 810, 3140 800, 3141 795 C 3141 792, 3140 791, 3134 790 C 3130 790, 3129 790, 3125 793 M 3270 791 C 3262 794, 3252 803, 3246 812 C 3244 816, 3243 831, 3245 834 C 3246 836, 3250 833, 3257 826 C 3259 823, 3263 819, 3265 818 C 3267 816, 3270 812, 3272 809 C 3274 806, 3276 803, 3278 801 C 3280 799, 3282 794, 3280 792 C 3279 790, 3274 790, 3270 791 M 685 844 C 683 844, 676 845, 670 846 C 663 847, 655 848, 652 849 C 649 849, 643 850, 639 851 C 636 852, 631 853, 628 853 C 626 853, 622 854, 620 854 C 618 855, 613 857, 608 858 C 604 859, 599 861, 597 861 C 596 862, 593 863, 591 863 C 589 864, 586 865, 583 866 C 581 867, 579 868, 578 868 C 574 868, 540 886, 535 891 C 533 893, 530 895, 527 896 C 522 898, 507 913, 505 917 C 504 918, 503 921, 502 922 C 499 926, 495 938, 494 944 C 493 955, 499 965, 508 968 C 518 971, 549 970, 561 966 C 564 966, 570 964, 574 964 C 577 963, 585 960, 591 958 C 596 956, 602 954, 605 953 C 618 949, 659 928, 674 918 C 694 906, 721 887, 727 882 C 728 881, 732 878, 735 876 C 742 871, 764 851, 766 848 C 768 844, 765 844, 725 843 C 704 843, 686 843, 685 844 M 3119 906 C 3109 908, 3096 912, 3093 914 C 3091 915, 3089 916, 3088 916 C 3085 916, 3074 922, 3070 927 L 3065 931 3065 939 C 3065 946, 3065 947, 3068 949 C 3072 954, 3092 953, 3104 949 C 3123 942, 3131 932, 3130 917 C 3129 906, 3127 904, 3119 906 M 3256 906 C 3233 912, 3212 922, 3206 931 C 3205 933, 3204 941, 3204 945 C 3205 946, 3207 948, 3209 949 C 3217 955, 3245 952, 3254 944 C 3256 942, 3258 941, 3258 941 C 3259 941, 3262 939, 3264 937 L 3269 933 3269 921 C 3269 907, 3269 906, 3263 906 C 3261 905, 3258 906, 3256 906 M 1090 919 C 1077 926, 1074 936, 1080 947 C 1082 951, 1083 952, 1087 953 C 1098 955, 1108 952, 1114 943 C 1117 939, 1117 938, 1117 931 C 1117 927, 1117 923, 1116 922 C 1113 915, 1098 914, 1090 919 M 2665 1003 C 2664 1004, 2662 1005, 2661 1005 C 2660 1005, 2658 1006, 2655 1008 C 2652 1009, 2649 1011, 2648 1012 C 2647 1012, 2644 1013, 2643 1014 C 2641 1015, 2640 1016, 2639 1016 C 2638 1016, 2623 1025, 2616 1030 C 2612 1033, 2606 1037, 2603 1039 C 2600 1041, 2595 1045, 2592 1048 C 2589 1050, 2584 1054, 2582 1055 C 2570 1064, 2533 1105, 2520 1125 C 2492 1166, 2482 1187, 2483 1210 C 2484 1221, 2484 1221, 2495 1221 C 2503 1220, 2502 1221, 2518 1210 C 2527 1204, 2556 1174, 2560 1167 C 2561 1165, 2563 1162, 2565 1161 C 2569 1156, 2571 1155, 2587 1133 C 2599 1116, 2604 1109, 2606 1107 C 2606 1106, 2611 1098, 2617 1089 C 2636 1062, 2645 1048, 2647 1043 C 2648 1041, 2650 1037, 2652 1035 C 2654 1032, 2656 1029, 2657 1028 C 2657 1026, 2658 1025, 2659 1024 C 2659 1023, 2661 1021, 2662 1019 C 2662 1017, 2664 1014, 2665 1013 C 2670 1008, 2672 1004, 2672 1002 C 2671 1000, 2668 1001, 2665 1003 M 3853 1075 C 3852 1076, 3850 1077, 3848 1077 C 3844 1077, 3842 1078, 3839 1083 C 3835 1089, 3835 1092, 3838 1093 C 3839 1094, 3840 1096, 3841 1098 C 3841 1101, 3845 1105, 3848 1105 C 3849 1105, 3853 1107, 3857 1109 C 3863 1112, 3864 1112, 3864 1115 C 3864 1123, 3851 1127, 3845 1121 C 3841 1117, 3834 1120, 3837 1125 C 3841 1132, 3857 1134, 3865 1129 C 3871 1125, 3872 1121, 3872 1115 C 3872 1108, 3867 1103, 3857 1100 C 3845 1096, 3841 1089, 3850 1084 C 3855 1082, 3858 1081, 3860 1083 C 3861 1085, 3866 1086, 3868 1085 C 3872 1083, 3869 1077, 3864 1077 C 3863 1077, 3861 1076, 3859 1075 C 3858 1074, 3856 1073, 3856 1073 C 3855 1073, 3854 1074, 3853 1075 M 3323 1075 C 3321 1075, 3318 1076, 3315 1076 C 3302 1079, 3294 1091, 3296 1108 C 3296 1113, 3297 1115, 3299 1117 C 3300 1119, 3301 1121, 3301 1121 C 3301 1122, 3304 1124, 3307 1126 L 3313 1131 3324 1131 C 3336 1131, 3337 1131, 3343 1125 C 3348 1121, 3341 1118, 3334 1122 C 3330 1124, 3321 1125, 3317 1123 C 3315 1123, 3312 1120, 3310 1118 C 3302 1110, 3301 1098, 3308 1089 C 3312 1084, 3327 1080, 3328 1083 C 3329 1083, 3330 1084, 3332 1084 C 3333 1085, 3335 1086, 3336 1087 C 3340 1091, 3345 1088, 3343 1083 C 3343 1081, 3341 1080, 3334 1077 C 3330 1075, 3326 1074, 3326 1074 C 3325 1074, 3324 1074, 3323 1075 M 3544 1075 C 3538 1076, 3533 1078, 3531 1081 C 3528 1086, 3528 1092, 3529 1096 C 3531 1099, 3538 1105, 3540 1105 C 3541 1105, 3543 1106, 3544 1107 C 3546 1107, 3548 1108, 3549 1108 C 3551 1108, 3556 1114, 3556 1117 C 3556 1119, 3549 1124, 3546 1124 C 3545 1124, 3542 1123, 3540 1122 C 3534 1119, 3524 1120, 3527 1124 C 3529 1126, 3535 1130, 3540 1131 C 3554 1134, 3564 1128, 3564 1117 C 3564 1112, 3561 1105, 3560 1105 C 3560 1105, 3557 1104, 3555 1102 C 3552 1100, 3549 1099, 3548 1099 C 3545 1099, 3538 1095, 3538 1093 C 3534 1085, 3543 1081, 3554 1084 C 3559 1086, 3563 1085, 3563 1081 C 3563 1079, 3562 1078, 3555 1076 C 3550 1074, 3547 1074, 3544 1075 M 3804 1075 C 3794 1077, 3785 1085, 3782 1093 C 3780 1099, 3781 1111, 3782 1115 C 3789 1128, 3807 1135, 3820 1130 C 3827 1127, 3829 1125, 3829 1121 C 3829 1116, 3827 1116, 3821 1120 C 3814 1125, 3808 1125, 3800 1121 C 3792 1117, 3789 1112, 3789 1103 C 3789 1093, 3794 1087, 3803 1084 C 3809 1082, 3816 1083, 3821 1086 C 3824 1089, 3827 1088, 3828 1086 C 3830 1082, 3827 1079, 3818 1076 C 3811 1074, 3811 1074, 3804 1075 M 2707 1076 C 2701 1078, 2701 1079, 2701 1105 C 2701 1133, 2700 1131, 2716 1131 C 2724 1131, 2727 1131, 2732 1129 C 2743 1125, 2751 1114, 2751 1103 C 2751 1096, 2745 1084, 2741 1084 C 2740 1084, 2737 1082, 2736 1081 C 2733 1078, 2732 1077, 2725 1077 C 2722 1076, 2716 1076, 2714 1076 C 2712 1075, 2708 1076, 2707 1076 M 2764 1076 C 2759 1078, 2759 1080, 2759 1105 L 2759 1128 2761 1130 C 2763 1131, 2767 1131, 2780 1131 L 2796 1131 2796 1128 C 2796 1124, 2793 1123, 2780 1123 C 2768 1124, 2768 1123, 2768 1114 C 2768 1105, 2768 1105, 2779 1106 C 2790 1106, 2793 1106, 2793 1103 C 2793 1099, 2792 1098, 2781 1099 C 2769 1099, 2768 1099, 2767 1091 C 2767 1084, 2767 1084, 2782 1084 C 2794 1084, 2795 1083, 2795 1081 C 2795 1077, 2792 1076, 2778 1076 C 2771 1076, 2765 1076, 2764 1076 M 2864 1076 C 2860 1076, 2858 1080, 2860 1082 C 2861 1084, 2863 1084, 2869 1084 C 2878 1084, 2877 1082, 2877 1108 C 2877 1119, 2877 1128, 2877 1129 C 2877 1130, 2880 1131, 2883 1130 L 2886 1129 2885 1107 C 2885 1083, 2885 1084, 2895 1084 C 2902 1084, 2902 1084, 2903 1081 C 2905 1076, 2903 1076, 2884 1076 C 2874 1076, 2865 1076, 2864 1076 M 3130 1076 C 3128 1077, 3127 1127, 3129 1130 C 3132 1133, 3154 1131, 3162 1128 C 3174 1122, 3179 1111, 3177 1097 C 3176 1091, 3175 1090, 3171 1085 C 3164 1078, 3162 1077, 3149 1076 C 3143 1076, 3137 1076, 3135 1076 C 3133 1075, 3131 1076, 3130 1076 M 3208 1077 C 3206 1080, 3205 1127, 3208 1129 C 3212 1134, 3215 1129, 3214 1119 C 3214 1107, 3215 1106, 3226 1106 C 3239 1106, 3243 1104, 3238 1100 C 3236 1098, 3234 1098, 3228 1099 C 3217 1099, 3214 1097, 3214 1090 C 3214 1085, 3215 1084, 3229 1084 C 3241 1084, 3243 1083, 3241 1079 C 3239 1076, 3237 1076, 3223 1076 C 3211 1076, 3210 1076, 3208 1077 M 3501 1076 L 3486 1076 3485 1079 C 3483 1083, 3484 1127, 3485 1129 C 3486 1131, 3489 1131, 3503 1131 C 3519 1131, 3522 1131, 3522 1128 C 3522 1124, 3519 1123, 3506 1123 C 3493 1123, 3493 1123, 3493 1115 C 3492 1106, 3493 1106, 3505 1106 C 3511 1106, 3516 1105, 3518 1104 L 3520 1103 3518 1101 C 3516 1099, 3515 1099, 3505 1098 C 3492 1098, 3490 1096, 3494 1085 C 3494 1084, 3497 1084, 3507 1084 L 3520 1084 3521 1081 C 3521 1078, 3520 1076, 3518 1075 C 3517 1075, 3510 1076, 3501 1076 M 3578 1076 C 3569 1076, 3568 1077, 3568 1079 C 3568 1083, 3570 1084, 3576 1084 C 3580 1084, 3583 1084, 3584 1085 C 3585 1085, 3585 1092, 3585 1108 L 3586 1129 3588 1130 C 3590 1131, 3591 1131, 3593 1129 C 3595 1128, 3595 1127, 3595 1107 C 3595 1083, 3594 1084, 3603 1084 C 3609 1084, 3611 1083, 3611 1081 C 3611 1075, 3604 1075, 3578 1076 M 3684 1076 L 3674 1077 3673 1102 C 3673 1115, 3673 1127, 3673 1129 C 3674 1131, 3675 1131, 3690 1131 C 3698 1131, 3706 1131, 3708 1131 C 3711 1129, 3711 1127, 3709 1125 C 3708 1123, 3706 1123, 3696 1123 C 3683 1123, 3681 1123, 3682 1116 C 3682 1106, 3682 1106, 3694 1106 C 3706 1105, 3708 1105, 3708 1102 C 3708 1099, 3703 1098, 3693 1098 C 3683 1099, 3682 1098, 3681 1092 C 3680 1085, 3682 1084, 3696 1084 C 3708 1084, 3710 1083, 3710 1080 C 3710 1076, 3706 1075, 3684 1076 M 3717 1076 C 3716 1077, 3715 1078, 3715 1079 C 3713 1082, 3716 1084, 3722 1084 C 3731 1084, 3730 1083, 3730 1106 C 3730 1128, 3731 1131, 3735 1131 C 3740 1131, 3740 1129, 3740 1107 C 3740 1095, 3740 1086, 3740 1085 C 3741 1085, 3745 1084, 3749 1084 C 3756 1084, 3757 1083, 3757 1081 C 3757 1076, 3757 1076, 3737 1076 C 3727 1076, 3718 1076, 3717 1076 M 2807 1078 C 2805 1081, 2805 1081, 2805 1104 C 2805 1130, 2805 1131, 2810 1131 C 2813 1131, 2814 1128, 2814 1111 C 2814 1101, 2814 1094, 2815 1094 C 2816 1092, 2819 1094, 2820 1097 C 2822 1101, 2832 1114, 2840 1124 C 2845 1131, 2847 1132, 2851 1130 L 2853 1128 2853 1103 L 2853 1079 2850 1077 C 2845 1075, 2845 1076, 2845 1096 C 2845 1112, 2844 1117, 2842 1114 C 2842 1114, 2838 1109, 2835 1104 C 2823 1087, 2814 1076, 2811 1076 C 2810 1076, 2808 1077, 2807 1078 M 2923 1077 C 2922 1078, 2920 1080, 2918 1083 C 2917 1085, 2915 1088, 2915 1089 C 2914 1090, 2913 1091, 2913 1092 C 2913 1094, 2910 1101, 2905 1110 C 2904 1113, 2903 1116, 2903 1116 C 2903 1117, 2902 1120, 2900 1122 C 2896 1127, 2896 1129, 2899 1130 C 2902 1132, 2905 1130, 2907 1125 C 2911 1117, 2912 1117, 2925 1117 L 2937 1117 2940 1123 C 2943 1130, 2946 1132, 2950 1130 C 2951 1129, 2952 1128, 2952 1128 C 2952 1127, 2946 1114, 2942 1107 C 2941 1104, 2939 1100, 2938 1097 C 2934 1087, 2928 1077, 2927 1076 C 2926 1076, 2924 1077, 2923 1077 M 2959 1078 C 2957 1081, 2957 1081, 2957 1104 C 2957 1116, 2957 1127, 2957 1128 C 2957 1130, 2963 1131, 2973 1131 C 2985 1132, 2990 1131, 2990 1128 C 2990 1125, 2987 1124, 2978 1123 C 2965 1123, 2966 1125, 2966 1100 C 2966 1076, 2965 1072, 2959 1078 M 3032 1079 C 3030 1081, 3029 1083, 3029 1085 C 3028 1086, 3025 1092, 3022 1098 C 3019 1104, 3017 1110, 3017 1111 C 3017 1111, 3016 1112, 3015 1113 C 3014 1114, 3013 1117, 3013 1119 C 3012 1121, 3011 1123, 3011 1124 C 3007 1127, 3009 1131, 3014 1131 C 3016 1131, 3018 1129, 3020 1123 C 3022 1117, 3022 1117, 3036 1117 C 3048 1117, 3050 1117, 3053 1124 C 3055 1128, 3057 1131, 3059 1131 C 3060 1131, 3061 1130, 3062 1129 C 3064 1128, 3064 1127, 3060 1120 C 3058 1115, 3056 1111, 3056 1110 C 3056 1109, 3054 1104, 3051 1098 C 3048 1092, 3045 1086, 3045 1085 C 3044 1081, 3039 1076, 3037 1076 C 3036 1076, 3034 1077, 3032 1079 M 3071 1078 C 3069 1080, 3068 1113, 3069 1128 C 3069 1128, 3070 1129, 3072 1130 C 3077 1132, 3077 1131, 3077 1110 C 3077 1100, 3077 1092, 3078 1092 C 3079 1091, 3084 1096, 3084 1098 C 3084 1098, 3087 1103, 3091 1108 C 3095 1113, 3099 1118, 3100 1120 C 3104 1129, 3114 1134, 3117 1129 C 3118 1128, 3118 1118, 3118 1104 C 3118 1076, 3117 1072, 3111 1079 C 3109 1081, 3109 1081, 3109 1096 C 3109 1117, 3107 1118, 3099 1105 C 3098 1102, 3095 1098, 3092 1095 C 3090 1092, 3088 1090, 3088 1089 C 3088 1089, 3085 1086, 3082 1082 C 3076 1075, 3073 1074, 3071 1078 M 3262 1078 C 3261 1079, 3259 1082, 3257 1086 C 3255 1092, 3253 1095, 3245 1113 C 3244 1115, 3243 1118, 3243 1118 C 3243 1119, 3242 1121, 3240 1123 C 3238 1126, 3238 1129, 3240 1130 C 3243 1132, 3247 1129, 3249 1125 C 3249 1124, 3250 1121, 3251 1120 L 3253 1117 3266 1117 L 3279 1118 3282 1123 C 3285 1130, 3288 1132, 3291 1130 C 3294 1129, 3294 1128, 3289 1119 C 3287 1114, 3284 1108, 3283 1105 C 3281 1101, 3279 1097, 3278 1096 C 3278 1094, 3277 1091, 3276 1088 C 3275 1084, 3269 1076, 3266 1076 C 3265 1076, 3263 1077, 3262 1078 M 3353 1078 C 3352 1081, 3352 1127, 3353 1129 C 3354 1130, 3358 1130, 3360 1129 C 3362 1127, 3361 1082, 3360 1079 C 3358 1076, 3354 1075, 3353 1078 M 3388 1080 C 3387 1082, 3385 1085, 3384 1087 C 3384 1088, 3383 1091, 3382 1093 C 3381 1095, 3378 1101, 3375 1108 C 3373 1114, 3370 1120, 3368 1122 C 3366 1126, 3365 1128, 3367 1130 C 3370 1133, 3375 1129, 3376 1124 C 3377 1123, 3378 1120, 3380 1119 C 3382 1116, 3383 1116, 3394 1117 C 3407 1118, 3408 1118, 3410 1124 C 3411 1129, 3413 1131, 3416 1131 C 3420 1131, 3421 1127, 3419 1124 C 3418 1122, 3417 1120, 3417 1119 C 3417 1118, 3416 1116, 3415 1115 C 3414 1114, 3413 1111, 3413 1110 C 3411 1105, 3399 1080, 3397 1078 C 3394 1075, 3392 1075, 3388 1080 M 3427 1078 C 3425 1080, 3425 1082, 3425 1103 L 3425 1127 3427 1129 C 3430 1131, 3430 1131, 3443 1131 C 3459 1130, 3461 1129, 3458 1125 C 3456 1123, 3455 1123, 3446 1123 C 3439 1123, 3436 1123, 3435 1122 C 3434 1120, 3434 1115, 3434 1101 C 3434 1078, 3432 1073, 3427 1078 M 3619 1079 C 3617 1083, 3616 1126, 3619 1129 C 3623 1134, 3626 1130, 3626 1118 C 3626 1105, 3626 1105, 3640 1106 C 3646 1106, 3651 1107, 3652 1107 C 3653 1108, 3653 1111, 3653 1118 C 3653 1128, 3654 1131, 3658 1131 C 3663 1131, 3663 1129, 3663 1104 C 3663 1079, 3663 1076, 3659 1076 C 3655 1076, 3653 1080, 3653 1088 C 3653 1098, 3653 1099, 3639 1098 C 3626 1098, 3626 1098, 3626 1088 C 3626 1076, 3623 1073, 3619 1079 M 3766 1078 C 3764 1079, 3764 1081, 3764 1104 C 3764 1130, 3764 1131, 3769 1131 C 3773 1131, 3773 1128, 3773 1104 C 3773 1076, 3772 1073, 3766 1078 M 2710 1085 C 2709 1085, 2709 1090, 2709 1103 C 2709 1119, 2709 1120, 2711 1122 C 2712 1123, 2714 1124, 2715 1124 C 2717 1123, 2720 1123, 2722 1122 C 2733 1121, 2739 1117, 2741 1109 C 2744 1098, 2738 1088, 2729 1085 C 2724 1084, 2713 1084, 2710 1085 M 3137 1085 C 3136 1087, 3136 1120, 3138 1122 C 3139 1124, 3153 1123, 3158 1120 C 3171 1113, 3173 1096, 3162 1088 C 3158 1085, 3157 1085, 3148 1084 C 3141 1084, 3138 1084, 3137 1085 M 3035 1091 C 3034 1091, 3033 1093, 3033 1093 C 3033 1094, 3032 1097, 3030 1100 C 3026 1108, 3027 1109, 3037 1109 C 3046 1108, 3047 1106, 3043 1101 C 3042 1099, 3041 1097, 3040 1095 C 3039 1090, 3039 1089, 3038 1089 C 3037 1089, 3035 1090, 3035 1091 M 3391 1091 C 3390 1092, 3389 1094, 3389 1096 C 3389 1097, 3388 1099, 3387 1100 C 3386 1102, 3385 1104, 3385 1106 C 3385 1108, 3386 1109, 3393 1109 C 3403 1109, 3403 1109, 3398 1098 C 3394 1089, 3393 1088, 3391 1091 M 2922 1091 C 2922 1092, 2921 1094, 2921 1096 C 2920 1099, 2919 1102, 2918 1103 C 2915 1108, 2916 1109, 2924 1109 C 2934 1109, 2936 1107, 2931 1102 C 2930 1101, 2929 1098, 2928 1095 C 2927 1090, 2925 1088, 2922 1091 M 3263 1094 C 3261 1096, 3260 1099, 3260 1100 C 3260 1101, 3259 1102, 3258 1103 C 3258 1104, 3257 1105, 3257 1106 C 3257 1108, 3258 1109, 3265 1109 C 3275 1109, 3277 1106, 3271 1100 C 3270 1099, 3269 1097, 3269 1096 C 3269 1089, 3267 1089, 3263 1094"/>
</svg>
